<?xml version="1.0" encoding="utf-8"?>
<!-- Generator: Adobe Illustrator 25.2.3, SVG Export Plug-In . SVG Version: 6.00 Build 0)  -->
<svg version="1.1" id="Capa_1" xmlns="http://www.w3.org/2000/svg" xmlns:xlink="http://www.w3.org/1999/xlink" x="0px" y="0px"
	 viewBox="0 0 701.8 231.1" style="enable-background:new 0 0 701.8 231.1;" xml:space="preserve">
<style type="text/css">
	.st0{fill:#0C64AE;}
	.st1{fill:#E63439;}
	.st2{fill:#FFFFFF;}
	.st3{fill:#1C74B9;}
	.st4{fill:#4DAAD6;}
	.st5{fill:#BE1823;}
</style>
<g>
	<g>
		<rect class="st0" width="103" height="231.1"/>
		<rect x="102.8" y="0" class="st1" width="148.3" height="231.1"/>
		<path class="st2" d="M60.6,47.7v3.5C61.3,49.8,61,48.6,60.6,47.7"/>
		<path class="st2" d="M68.2,26.8c-0.2,0.4-0.5,0.4-0.7,0.7C67.2,27.1,67.9,26.4,68.2,26.8 M70.5,26.6c0.4-0.2,0.7-0.9,1.2-0.5
			c0.2,0.2,0.5,0.4,0.7,0.5c0.4,0.2,0.5,0.4,0.7,0.5c0.2,0.4-0.2,1.1-0.7,0.4c-0.4-0.5-0.7-1.4-1.4-1.1c-0.5,0.4-0.9,0.7-1.1,0.4
			C70,26.8,70.3,26.8,70.5,26.6 M70.7,27.3c0.2-0.4,0.4,0.9,1.2,0.5C71.2,28.5,70.3,27.8,70.7,27.3 M67.7,28.4c0.2,0,0-0.5,0.4-0.5
			c0.4,0,1.1,0.4,1.1,0.7c0.2,0.5-0.4,1.6,1.2,1.8v0.5c0,0.2-0.2,0.5-0.2,0.7h0.4c1.9,0.2,3,0,3.5-0.7c0,0,0.4-0.4,0.5-0.7
			c0.5-1.1,0.5-1.9,0.4-2.7v-0.2c0-0.2,0-0.2-0.2-0.2c-0.4-0.7-1.6-1.8-3-2.3h-0.4h0.4c1.1,0.2,2.8,1.2,3.2,2.1
			c0.4-0.2,0.7-0.7,0.7-1.2c0-0.2,0-0.7,0.2-1.2c0-0.2,0-0.4-0.2-0.4c-0.2,0-0.4,0-0.4,0.2c-0.2,0.5-0.9,0.2-0.5-0.4
			c0-0.2,0-0.4-0.2-0.4c-0.2,0-0.4,0-0.4,0.2c-0.2,0.5-0.9,0.2-0.5-0.4c0-0.2,0-0.4-0.2-0.4c-0.2,0-0.4,0-0.4,0.2
			c-0.2,0.5-0.9,0.2-0.5-0.4c0-0.2,0-0.4-0.2-0.4c-0.2,0-0.4,0-0.4,0.2c-0.2,0.4-0.4,0.7-0.5,0.9c1.2,0.2,2.3,0.9,3.2,1.6l0.4,0.4
			v0.2c-0.2-0.2-0.2-0.4-0.4-0.4c-1.2-1.1-2.5-1.6-3.4-1.6c-0.7,0-0.4,0.7-0.4,1.2c-1.1-0.2-1.8,0.5-1.9,1.2c0,0.4,0,0.5,0.2,0.9
			l-0.4-0.4c0-0.2-0.2-0.4-0.2-0.5c-0.9,0-1.6,0.5-1.6,1.2C67,27.8,67.5,28.4,67.7,28.4"/>
		<path class="st2" d="M91.1,64.7C90.5,64,89,64.3,89,64.3c0.9-2.5-1.4-3.2-1.4-3.2c-0.9-0.2-1.4,0-1.8,0.2c0,0-0.2,0-0.2,0.2
			c-0.2,0.2-0.4,0.5-0.4,0.9c0,0.7,0.5,1.2,1.2,1.2c0.2,0,0.5,0,0.7-0.2c0.2-0.2,0.4-0.4,0.5-0.7c0.4,0.2,0.5,0.5,0.5,0.5
			c0.7,2.1-1.8,2.8-1.8,2.8C81.2,67.7,78,65,78,65l0.9-0.5c0.4-0.2,0.5-0.2,0.9-0.2v0.2c0,0.5,0.5,1.1,1.1,1.1
			c0.5,0,1.1-0.5,1.1-1.1c0-0.2,0-0.4-0.2-0.5v-0.2c-0.7-0.9-2.8-0.4-2.8-0.4c0.7-1.8,0-3,0-3c-0.4-0.7-0.4-0.9-0.4-0.9
			c0-0.7-0.2-0.7-0.2-0.7c-0.4-0.5-0.9-0.2-0.9-0.2c-0.9,0.2-1.1-0.2-1.1-0.2c-0.7-0.5-1.1-0.2-1.1-0.2C75,58.5,75.5,59,75.5,59
			c-0.7,0-1.1,0.9-1.1,0.9c-0.4,1.6,1.1,1.8,1.1,1.8c0.9,0,0.9-0.7,0.9-0.7c0.2-0.7-0.9-0.7-0.9-0.7c0.2-0.5,0.5-0.4,0.5-0.4
			c1.1-0.4,1.6,1.1,1.6,1.1c0.9,1.4-0.2,2.7-0.2,2.7c-0.2,0.2-0.4,0-0.4,0c-0.7-0.2-1.6-0.9-1.6-0.9h-0.4c-0.4,0-0.9,0.2-1.2,0.2
			c0.4,0.5,1.8,1.6,1.8,1.6c-1.1,0.9-1.6,0.2-1.6,0.2c-0.5-0.5-0.4-1.4-0.4-1.8h-0.2c-0.5,0.2-0.9,0.4-1.4,0.5
			c0.5,0.9,1.2,2.1,1.2,2.1c-1.2,0.5-1.4-1.2-1.6-2.1c-0.2,0.2-0.5,0.2-0.7,0.4v0.4c0.2,0.9,0.9,1.9,0.9,1.9
			c-0.9-0.2-1.4,0.4-1.4,0.4C70,67,70,67.5,70,67.9s0.4,0.5,0.5,0.5c0.4,0,0.5-0.4,0.5-0.5c0-0.4-0.2-0.5-0.5-0.5
			c0.4-0.7,0.9-0.2,0.9-0.2c0.9,0.9-0.5,1.8-0.5,1.8c-1.1,0.7-2.1-0.7-2.1-0.7c1.1-1.9,1.2-3.4,1.2-4.3c-0.4,0.2-0.7,0.2-1.1,0.4
			c0.5,1.8-0.7,2.8-0.7,2.8c-0.4-0.2-0.4-1.2-0.4-1.2c-0.2-0.4-0.2-0.9-0.4-1.2c-0.4,0.2-0.7,0.2-1.1,0.4c0.4,1.1,0.5,2.7,0.5,2.7
			c-0.2,0.2-0.7,0.4-0.7,0.4c-0.9,0-0.4-0.4-0.4-0.4c0.4-0.4,0.4-0.7,0.4-0.7c-0.2-0.5-1.2,0-1.2,0c-1.2,0.7-0.9,1.4-0.9,1.4
			c0.2,0.5,1.4,0.9,1.4,0.9c-0.7,0.5-1.9,0.4-2.1,0.4c0-0.4-0.4-0.7-0.7-0.7c-0.5,0-0.7,0.2-0.9,0.4c0,0-0.2,0.2-0.2,0.4L61,69.5
			c-0.5,0-0.9-1.6-1.1-3h-0.7c0.2,1.4,0.5,2.7,0.5,2.7c-0.2,0-1.4-0.7-1.4-0.7c-1.4-0.9-2.5-0.5-2.5-0.5c-0.7,0.2-1.2,0.7-1.2,1.4
			c0,0.9,0.7,1.6,1.6,1.6c0.9,0,1.4-0.7,1.6-1.4c0.5,0.2,1.1,0.5,1.1,0.5c1.4,0.9,2.7,1.1,3,1.1c0.2,0.5,0.5,0.9,1.1,0.9
			c0.4,0,0.7-0.2,0.9-0.5c2.8-0.2,4.1-1.4,4.1-1.4c0.4-0.4,0.4-0.2,0.4-0.2c1.1,1.6,3.2,0.5,3.2,0.5c0.4-0.2,0.5,0,0.5,0
			c0.4,0.7,1.1,0.4,1.1,0.4c0.9-0.4,0.4-0.9,0.4-0.9c-0.4-0.4,0-0.4,0-0.4c0.9,0.2,1.2-0.4,1.2-0.4c0.2-0.4-0.5-0.9-0.5-0.9
			c-0.2-0.2,0.2-0.4,0.2-0.4c0.5-0.4,0.5-0.7,0.5-0.7c0.7,0,0.7-0.4,0.7-0.4c0-0.4-0.9-0.4-0.9-0.4c-0.7,0-0.5-0.5-0.5-0.5
			c1.1,0,2.7-0.5,2.7-0.5c2.3,1.9,5.8,2.3,5.8,2.3v0.9c-0.4,0-0.5,0.2-0.5,0.5c0,0.4,0.2,0.5,0.5,0.5h0.2c1.1-0.4,1.2-1.9,1.2-1.9
			c3.2,0.4,5.3-2.1,5.3-2.1c0.4-0.4,0.5-0.2,0.5-0.2c0.2,0.2,0.4,0.4,0.7,0.4c0.4,0,0.5-0.2,0.7-0.4c0.2-0.2,0.2-0.4,0.2-0.5
			C91.3,64.9,91.1,64.7,91.1,64.7"/>
		<path class="st2" d="M52.6,68.8c0.4-0.2,0.4-0.5,0.4-0.5c0-0.9-0.5-1.2-0.5-1.2h-1.2h-1.1c0,0-0.7,0.4-0.5,1.2c0,0,0,0.4,0.4,0.5
			c0,0-0.9,0.4-0.9,0.9c0,0,0,0.4,0.7,1.1c0,0,0.5,0.5,0.7,1.1c0,0,0,0.7,0.9,0.7s0.9-0.7,0.9-0.7c0.2-0.5,0.7-1.1,0.7-1.1
			c0.7-0.5,0.5-1.1,0.5-1.1C53.5,69.1,52.6,68.8,52.6,68.8"/>
		<polygon class="st2" points="58.7,65.2 59,65.2 58.7,64.7 		"/>
		<polygon class="st2" points="44.5,65.2 44.8,65.4 44.7,64.9 		"/>
		<path class="st2" d="M42.9,64.1L42.9,64.1l-0.2,0.7h0.4l0.2-0.2v-0.2v-0.2C43.1,64.1,43.1,64.1,42.9,64.1"/>
		<path class="st2" d="M48.9,64.7c-0.2,0-0.2,0-0.4,0.2c0,0.2-0.2,0.4-0.2,0.5v0.5c0,0.2,0.2,0.2,0.4,0.2c0.2,0,0.2,0,0.4-0.2
			c0-0.2,0.2-0.4,0.2-0.5v-0.5C49.3,64.7,49.1,64.7,48.9,64.7"/>
		<path class="st2" d="M54.2,64.7c-0.2,0-0.2,0-0.4,0.2c0,0.2-0.2,0.4,0,0.5c0,0.4,0,0.5,0.2,0.5c0,0.2,0.2,0.2,0.4,0.2
			c0.2,0,0.2,0,0.4-0.2c0-0.2,0.2-0.4,0.2-0.5c0-0.2,0-0.4-0.2-0.5C54.4,64.7,54.4,64.7,54.2,64.7"/>
		<polygon class="st2" points="39.7,64.5 40.2,64.7 40,64.1 		"/>
		<path class="st2" d="M31.7,61.3L31.5,62h0.4l0.2-0.2v-0.2c0,0,0-0.2-0.2-0.2C31.9,61.5,31.7,61.5,31.7,61.3"/>
		<path class="st2" d="M33.3,62.2c-0.2,0.2-0.2,0.2-0.2,0.5c0,0.2-0.2,0.5,0,0.5c0,0.2,0.2,0.2,0.2,0.2h0.4c0.2,0,0.2-0.2,0.4-0.5
			c0-0.2,0.2-0.4,0-0.5c0-0.2-0.2-0.2-0.2-0.4C33.7,62,33.5,62,33.3,62.2"/>
		<path class="st2" d="M35.6,62.7L35.6,62.7l-0.2,0.5h0.4H36c0,0,0-0.2,0.2-0.2v-0.2C36,62.7,35.8,62.7,35.6,62.7"/>
		<path class="st2" d="M67.3,62.7H67l0.2,0.7c0.2,0,0.2,0,0.2-0.2l0.2-0.2v-0.2L67.3,62.7"/>
		<polygon class="st2" points="70.9,62.6 71.2,62.4 70.9,62 		"/>
		<path class="st2" d="M71.4,62.9L71.4,62.9C71.4,62.7,71.4,62.7,71.4,62.9v-0.2l-0.2-0.2l-0.4,0.2v0.2v0.2h0.2v0.2l-0.5,0.2v-0.2
			c0.2,0,0.2-0.2,0.2-0.4v-1.4h0.2l1.1,1.1l0.2,0.2h0.2v0.2H71.4z M68.8,63.8L68.8,63.8l0.4-1.8l-0.2,0.2c-0.2,0-0.4,0.2-0.4,0.2
			v0.4h-0.2v-0.5l1.4-0.5v0.2l-0.5,1.8l0.4-0.2c0.2,0,0.2,0,0.2-0.2c0,0,0-0.2,0.2-0.2v-0.2h0.2l0.2,0.5L68.8,63.8z M68,64.1
			l-0.4-0.4c0-0.2-0.2-0.2-0.2-0.2h-0.2h-0.2l0.2,0.4v0.2h0.2v0.2l-0.9,0.2v-0.2c0.2,0,0.2,0,0.2-0.2V64l-0.4-1.1v-0.2h-0.2v-0.2
			l0.7-0.2h0.2h0.4h0.2c0,0,0.2,0,0.2,0.2l0.2,0.2c0,0.2,0,0.4-0.2,0.5c0,0,0.2,0.2,0.4,0.4c0.2,0.2,0.2,0.2,0.4,0.2h0.2V64L68,64.1
			z M64.9,64.9L64.9,64.9c0-0.2,0.2-0.2,0.2-0.2v-0.2l-0.2-1.1v-0.2h-0.2v-0.2l1.4-0.4l0.2,0.4h-0.2l-0.2-0.2h-0.2h-0.2h-0.4
			l0.2,0.5h0.2h0.2v-0.2h0.2l0.2,0.5h-0.2v-0.2h-0.2h-0.2l0.2,0.4v0.2h0.2h0.2c0.2,0,0.2,0,0.2-0.2c0,0,0-0.2,0.2-0.2v-0.2h0.2
			l0.2,0.5L64.9,64.9z M64,63.6l0.2,0.5v0.4v0.2L64,64.9c-0.2,0-0.2,0.2-0.4,0.2h-0.4c-0.2,0-0.2,0-0.4-0.2l-0.2-0.2v-0.2L62.6,64
			v-0.2h-0.2v-0.2l0.9-0.2v0.2h-0.2v0.2l0.2,0.7c0,0.2,0,0.2,0.2,0.4c0,0,0,0.2,0.2,0.2h0.2c0.2,0,0.2,0,0.2-0.2l0.2-0.2v-0.4
			L64,63.6c-0.2-0.2-0.4-0.2-0.5-0.2v-0.2l0.7-0.2v0.2H64V63.6 M62,64.1c0,0,0-0.2-0.2-0.2h-0.2h-0.2h-0.4l0.2,0.5h0.2h0.2v-0.2
			L62,64.1v0.7h-0.2v-0.2h-0.2h-0.2v0.5v0.2h0.2v0.2l-0.9,0.2v-0.2H61v-0.2l-0.2-1.1v-0.2h-0.2V64l1.4-0.2V64.1z M59,65.7L59,65.7
			c0-0.2,0.2-0.2,0.2-0.2v-0.2v-0.2h-0.5v0.2v0.2h0.2v0.2h-0.5v-0.2c0.2,0,0.2-0.2,0.2-0.4l0.4-1.4H59l0.7,1.2
			c0,0.2,0.2,0.2,0.2,0.2h0.2v0.2L59,65.7z M56.3,66.1L56.3,66.1l0.2-0.2v-0.2l-0.2-1.1v-0.2h-0.2v-0.2h0.9v0.2h-0.2v0.2l0.2,1.1
			v0.2h0.2c0.2,0,0.2,0,0.4-0.2c0,0,0.2-0.2,0.2-0.4h0.2v0.5L56.3,66.1z M54.9,65.9c-0.2,0.2-0.4,0.4-0.7,0.4c-0.2,0-0.4,0-0.5-0.2
			c-0.2,0-0.4-0.2-0.4-0.4c0-0.2-0.2-0.4-0.2-0.4c0-0.2,0-0.4,0.2-0.5c0-0.2,0.2-0.2,0.4-0.4c0.2,0,0.4-0.2,0.5-0.2
			c0.4,0,0.5,0,0.7,0.2c0.2,0.2,0.4,0.4,0.4,0.7C55.3,65.6,55.1,65.7,54.9,65.9 M52.1,64.7L52.1,64.7c-0.2,0-0.2,0.2-0.2,0.2V65v1.2
			h-0.2L50.7,65v0.7v0.2h0.2v0.2h-0.7v-0.2h0.2v-0.2v-0.2v-0.9c0-0.2,0-0.4-0.2-0.4v-0.2h0.5l0.9,1.1v-0.7c0-0.2,0-0.4-0.2-0.4V64
			L52.1,64.7z M49.6,65.9c-0.2,0.2-0.4,0.2-0.7,0.2c-0.2,0-0.4,0-0.5-0.2L48,65.6c0-0.2-0.2-0.4-0.2-0.4c0-0.2,0-0.4,0.2-0.5
			l0.4-0.4c0.2,0,0.4-0.2,0.5-0.2c0.4,0,0.5,0.2,0.7,0.4c0.2,0.2,0.2,0.4,0.2,0.7C49.8,65.6,49.8,65.9,49.6,65.9 M47.5,64.5
			l-1.1,1.4h0.4H47c0,0,0.2,0,0.2-0.2l0.2-0.2h0.2v0.5l-1.6-0.2v-0.2l1.1-1.4h-0.4h-0.4l-0.2,0.2h-0.2V64L47.5,64.5z M45.7,65.9
			h-0.9v-0.2H45v-0.2v-0.2h-0.5v0.2h0.2v0.2h-0.5v-0.2c0.2,0,0.2,0,0.4-0.2l0.7-1.2h0.2l0.4,1.4c0,0.2,0,0.2,0.2,0.2
			C45.5,65.9,45.7,65.9,45.7,65.9 M43.8,65.7h-0.5c0,0-0.2-0.2-0.2-0.5c0-0.2,0-0.2-0.2-0.2h-0.2v0.4v0.2h0.2v0.2L42,65.6v-0.2h0.2
			v-0.2l0.2-1.1V64h-0.2v-0.2l0.7,0.2h0.2h0.4c0,0,0.2,0,0.2,0.2l0.2,0.2v0.2c0,0.2-0.2,0.4-0.4,0.4c0,0,0.2,0.2,0.2,0.4
			c0,0.2,0.2,0.4,0.2,0.4V65.7z M40.9,65.4L40,65.2V65h0.2v-0.2v-0.2l-0.5-0.2v0.2v0.2h0.2V65l-0.5-0.2v-0.2c0.2,0,0.2,0,0.4-0.2
			l0.7-1.2h0.2l0.4,1.4c0,0.2,0,0.2,0.2,0.2C40.8,65.2,40.9,65.2,40.9,65.4 M39,65l-1.6-0.4v-0.2h0.2v-0.2l0.2-1.1v-0.2h-0.2v-0.2
			l0.9,0.2v0.2h-0.2v0.2l-0.2,0.9v0.2h0.2h0.4c0.2,0,0.2-0.2,0.2-0.4H39V65z M36.1,64c0,0.2,0.2,0.4,0.2,0.4h0.2v0.2L36,64.3
			c0,0,0-0.2-0.2-0.5v-0.2h-0.2L35.4,64v0.2l0.2,0.2v0.2L34.6,64v-0.2h0.2v-0.2l0.2-1.1v-0.2l-0.2-0.2V62l0.7,0.2h0.2
			c0.2,0,0.2,0,0.4,0.2c0,0,0.2,0,0.2,0.2l0.2,0.2v0.2c0,0.2-0.2,0.4-0.5,0.4C36,63.6,36.1,63.6,36.1,64 M34.4,63.1
			c0,0.2-0.2,0.4-0.4,0.5c-0.2,0.2-0.5,0.2-0.7,0c-0.2,0-0.4-0.2-0.5-0.4c-0.2-0.2-0.2-0.4-0.2-0.4v-0.4c0-0.2,0.2-0.4,0.2-0.4
			C33,62,33.1,62,33.1,62h0.5c0.4,0.2,0.5,0.2,0.5,0.5C34.6,62.6,34.6,62.9,34.4,63.1 M32.4,62c0,0.2-0.2,0.2-0.2,0.2h-0.4
			c-0.2,0-0.2,0-0.4-0.2h-0.2l-0.2,0.4v0.2l0.2,0.2v0.2l-0.9-0.4v-0.2h0.2l0.2-0.2l0.4-0.9v-0.2L31,61v-0.2l0.7,0.2
			c0.2,0,0.4,0.2,0.4,0.2l0.2,0.2l0.2,0.2V62 M48.9,64h0.5l-0.5,0.4h-0.2L48.9,64z M71.8,60.1h-0.4c-0.7,0.2-8.2,3.4-20.2,3.4
			c-12,0-19.3-3.2-20.2-3.4h-0.4c-0.2,0-0.4,0-0.5,0.2l-2.5,1.9c0.7,0,1.6,0.4,1.6,0.4c6.4,2.8,13.8,4.1,22.1,4.1
			c8.3,0,15.6-1.2,22-4.1c0,0,0.9-0.4,1.6-0.4l-2.5-1.9C72.3,60.2,72.1,60.1,71.8,60.1"/>
		<path class="st2" d="M42.5,35.8c-0.2,0.2-0.5,0.4-0.9,0.5h1.9C43.2,36.1,42.9,36,42.5,35.8"/>
		<path class="st2" d="M54.8,36.3C54.4,36.1,54.2,36,54,36h-0.2c-0.4-0.2-0.7-0.2-1.1-0.4h-3.7c-0.4,0-0.7,0.2-1.1,0.4h-0.2
			c-0.2,0-0.5,0.2-0.7,0.4H47H54.8"/>
		<path class="st2" d="M59.7,35.8L59.7,35.8c-0.2,0.2-0.5,0.4-0.9,0.5h1.6C60.1,36.1,59.9,36,59.7,35.8"/>
		<path class="st2" d="M41.6,51.2v-4.1C41.3,48,40.8,49.6,41.6,51.2"/>
		<path class="st2" d="M50.9,36.9h-9.9c0,0.2,0,0.2,0.2,0.2c0,0,0.2,0.2,0.4,0.5h9.2L50.9,36.9z"/>
		<path class="st2" d="M50.5,38.1h-8.7c0.2,0.2,0.4,0.5,0.4,0.7h8L50.5,38.1z"/>
		<path class="st2" d="M49.8,40.2l0.2-0.7h-7.4c0.2,0.2,0.2,0.5,0.4,0.7H49.8z"/>
		<path class="st2" d="M49.6,40.8h-6.7c0,0.2,0.2,0.5,0.2,0.7h6.4L49.6,40.8z"/>
		<path class="st2" d="M42.9,44.3h3.5l-1.1-0.7h-2.3C42.9,43.8,42.9,43.9,42.9,44.3"/>
		<polygon class="st2" points="43.1,42.2 43.1,42.2 43.1,43.1 44.7,43.1 43.6,42.2 		"/>
		<path class="st2" d="M54.9,45.5h0.5v5l-0.5-1.4V45.5z M50.9,44.5l4.4,6.2v3.2H56h0.2v-8.3h0.5v8.3c0.4,0,0.5,0,0.9-0.2v-8.2h0.5v8
			c0.4-0.2,0.5-0.2,0.7-0.4v-7.6h0.5V53c0.4-0.2,0.5-0.4,0.7-0.5v-0.2v-5.5c-0.2-0.4-0.5-0.9-0.5-1.2c-0.2-0.4-0.2-0.5-0.4-0.9h-4.6
			l-1.1,0.7l-1.9-0.7L50.9,44.5l7.4-2.5h-5.8l-0.2-0.5h6.6c0-0.4,0-0.5,0.2-0.7h-6.9l-0.2-0.5h7.3c0.2-0.4,0.2-0.5,0.4-0.7h-7.8
			L51.6,39h8.2c0.2-0.4,0.4-0.5,0.4-0.9h-8.9L51,37.6h9.4c0.4-0.4,0.5-0.7,0.5-0.7v-0.2H50.7v-0.2v0.2v0.7v0.5v0.9v0.5V40v0.5v0.7
			L50.9,44.5z"/>
		<path class="st2" d="M52.8,54.8c0.2-0.2,0.5-0.4,0.9-0.4v-5l-0.9-0.5V54.8z"/>
		<path class="st2" d="M51.4,56.3c0.2-0.2,0.2-0.4,0.4-0.5c0.2-0.2,0.4-0.4,0.5-0.7v-6.9l-0.9-0.4V56.3z"/>
		<path class="st2" d="M50,55.1c0.2,0.2,0.5,0.5,0.7,0.9c0,0,0,0.2,0.2,0.2v-8.7L50,48V55.1z"/>
		<path class="st2" d="M48.7,54.2c0.4,0.2,0.5,0.2,0.9,0.4v-6.2l-0.9,0.5V54.2z"/>
		<path class="st2" d="M54,54.2c0.4,0,0.5-0.2,0.9-0.2v-3.5L54,49.8V54.2z"/>
		<path class="st2" d="M47.3,54c0.2,0,0.5,0.2,0.9,0.2v-4.6l-0.9,0.5V54z"/>
		<path class="st2" d="M47,45.5h0.5V48L47,49.6V45.5z M42.9,52.8v-7.3h0.5v7.6c0.2,0.2,0.5,0.2,0.7,0.4v-8h0.5v8.2
			c0.2,0,0.5,0.2,0.9,0.2v-8.2h0.5V54h0.4H47v-3.4L46.4,51l4.6-6.4l-1.6-2.5h-5.8l7.4,2.5l-2.7,1.1L47.3,45h-4.4
			c0,0.2-0.2,0.5-0.4,0.9c0,0.2-0.2,0.4-0.4,0.5v5.8C42.2,52.3,42.5,52.6,42.9,52.8"/>
		<path class="st2" d="M55.5,44.3h3.7c0-0.4-0.2-0.5-0.2-0.7h-2.5L55.5,44.3z"/>
		<polygon class="st2" points="59,42.2 58.5,42.2 57.4,43.1 59,43.1 59,42.5 		"/>
		<path class="st2" d="M39.5,20.2c1.1-0.4,2.3,0,2.8,0.5c1.8,1.8,0.9,4.4,0.4,4.4c0.4-1.1,0.5-2.7-1.1-3c-1.2-0.4-2.5,0.7-3,1.2
			c0.4-1.2,1.8-2.1,3.4-1.8c-0.4-1.1-1.6-1.4-3.2-0.5c-0.4,0.2-0.7,0.4-0.9,0.7C38.3,21.1,38.8,20.6,39.5,20.2 M39.5,26.2
			c0.9-0.2,1.8-0.7,1.4-1.6c0-0.2-0.4-0.5-0.7-0.5c-0.5,0-0.9,0.4-1.1,0.7c0-0.9,0.5-1.4,1.4-1.2c0.4,0,1.1,0.5,1.1,0.9
			C42,25.9,40.8,26.4,39.5,26.2 M45.5,23.2c0.7,1.2,2.7,2.8,5.1,3.4c0.9,0.2,1.2,2.8,0.5,4.3c-0.7,0-0.9-0.5-1.1-1.1
			c0.4,0.4,0.9,0.7,0.7,0c-0.4-0.2-1.9-0.7-1.6-1.4c0.4-0.4,1.2,1.2,1.4,0.7c0.2-1.1-3.4-1.4-3.2-2.5c0-0.5,2.7,1.2,3,1.2
			c0-0.5-4.1-2.1-5.1-4.4C45.5,23.4,45.5,23.2,45.5,23.2 M52.3,28.4c0.2,1.1,0.4,2.3-0.2,3.2c-0.2,0-0.2-0.5-0.2-0.7
			c0-1.1,0-2.3-0.4-3.2c-0.2-0.5-0.5-1.9-1.6-3.9C50.7,24.3,52.1,26.6,52.3,28.4 M53.3,24.8c0.7,0.4-0.4,1.8-0.5,2.1
			c0.2,0,0.7-0.7,1.1-0.5c0.4,0.4-0.7,1.8-1.1,1.9C51.2,26,53.3,25.5,53.3,24.8 M55.6,16.7c0,0.9-0.4,1.1-0.5,1.1v-0.2
			c0.2-0.5,0.2-1.4-0.4-1.9c-0.4-0.4-0.9-0.5-0.9-0.7C53.9,14.9,55.3,15.2,55.6,16.7 M53,29.4c-0.4-0.5,0.5-1.2,0.7-1.8
			C54.8,27.5,53.5,29.2,53,29.4 M53.2,31C53,30.8,53,30.5,53,30.3c0-0.5,0.7-0.7,1.1-1.1C54,29.1,54,29.9,53.2,31 M63.1,19.3
			c0.5,0.2,1.1,0.7,1.4,1.4c0.4,0.7,0.2,1.2,0,1.6c0-0.4,0-1.1-0.2-1.4c-0.2-0.4-0.4-0.7-0.7-0.9c0.2,0.4,0.4,0.7,0.5,0.9
			c0.2,0.4,0.2,0.5,0.2,0.7c0,0.7-0.4,1.6-0.7,1.8c0.4-0.9,0.4-1.6,0.2-2.3c0,0,0-0.2-0.2-0.2c-0.4-0.5-0.7-1.1-1.4-1.1
			c0.4,0.2,0.7,0.5,0.9,1.1c0.4,0.9,0.4,1.9-0.2,2.5V23v-0.9c-0.4-1.6-1.8-2.1-2.7-1.2C59.7,20.6,60.6,18.6,63.1,19.3 M38.3,27.1
			c1.4,0.9,3.4,0.7,3.9,0.5c0.4,0,0.7-0.2,1.1-0.5c0,0,0.2,0,0.2-0.2c0.5-0.5,0.9-1.2,0.9-2.3c0,0,0.2,0.4,0.2,0.5
			c0,0.4-0.2,0.9-0.2,1.2v0.2c0,0.2,0,0.4,0.2,0.4c0.4,0.4,0.9,0.4,1.4,0.2c0,0-0.4,0.5-1.1,0.5h-0.4c0.4,0.7,1.4,1.1,2.5,1.1
			c0,0-0.2,0.2-0.5,0.2c-0.5,0-1.1-0.2-1.6-0.4c0.5,0.5,1.4,1.2,2.8,1.4c0,0.2-1.1,0-1.4,0c0.7,2.7,2.1,2.3,2.1,2.7
			c-0.4,0.2-0.7,0.7-0.4,1.2c1.6-0.5,2.7-0.5,3-0.5s1.6,0,3,0.5c0.2-0.2,0.2-0.5,0.2-0.7c-0.2-0.7-2.3-1.2-4.3-0.7
			c-0.2,0-0.2,0-0.2,0.2l0.2-0.2c0.9-0.5,2.7-0.7,3.5-0.2c0.9,0.4,1.6-0.7,1.2-1.2c0.5,0,1.1-0.4,1.1-0.9c-0.2,0-0.2,0.2-0.4,0.2
			c0.2,0,0,0,0,0c0.2,0,0.2,0,0.4-0.2c1.1-0.7,1.6-1.9,1.6-2.3c-0.2,0.2-0.5,0.4-0.7,0.4h-0.4c0.2,0,0.4,0,0.4-0.2
			c0.4-0.4,0.7-0.9,0.9-1.2c-0.7-0.7-0.9-1.4-1.4-2.5c-0.2-0.4-0.5-0.7-1.1-0.9h-0.2h-0.2c0.5-0.5,1.1,0,1.4,0.2
			c0-1.1,0.4-1.2,0.5-1.2c-0.7,2.1,0.7,4.1,1.8,4.6c1.4,0.7,4.1,0.9,5.7-0.5c-0.4,0.2-0.7,0.2-0.9,0.2c-0.4,0-0.5,0-0.5-0.2h0.7
			c2.5-0.7,2.7-3.7,2.1-3.9c0,0.2-0.2,0.4-0.2,0.5c-0.2,0.4-0.4,0.5-0.4,0.5c0.5-0.9,0.5-1.8,0.2-2.7c-0.2-0.5-0.5-1.1-0.9-1.4
			c-1.2-0.9-3.7-1.1-5.1,0c-0.5-0.5-1.1-0.9-1.8-1.1c-0.2,0.7-1.1,1.8-1.8,2.3c-0.2,0.2-0.5,0.4-0.7,0.4c0,0-0.2,0,0-0.2
			c1.2-0.9,1.9-1.8,1.9-3c0-0.7-0.2-1.8-0.9-2.7c-1.2-1.2-4.4-1.4-6-0.2c-0.4,0.4-0.7,0.9-0.7,1.6c0.2-0.5,0.5-0.9,1.2-1.1
			c0.7-0.2,1.9,0,2.1,0.7c-1.1-1.1-3.2-0.4-3.4,1.6c0,0.2-0.2,0.2-0.2,0.2s-0.2,0-0.2-0.9c0-0.5,0.2-1.2,0.4-1.8
			c-2.5-0.5-5.5,0.7-5.5,4.4c0,0.5,0.2,1.1,0.7,1.6c0.2,0.2,0,0.2,0,0.2s-0.4-0.2-0.5-0.4c-0.2-0.4-0.5-0.7-0.5-1.2
			c-1.6-0.5-2.5-0.5-3.4-0.5c-0.9,0-2.1,0.9-2.5,1.4c-0.2,0.2-0.4,0.5-0.5,0.9c-0.4,0.5-0.5,1.4-0.5,2.3
			C36.5,25.2,37.2,26.4,38.3,27.1"/>
		<path class="st2" d="M23.7,62.7L23.7,62.7c-0.2-0.2-0.4-0.2-0.5-0.4c-0.2,0.2,0.2,0.5,0.4,0.7l-0.2,0.2H23
			c-0.4-0.2-0.4-0.5-0.4-0.9c0-0.2-0.2-0.5-0.5-0.9c0.5-0.4,1.4,0.5,1.6,0.7c0.2,0.2,0.4,0.2,0.4,0.4l0.2,0.2
			C24.1,62.9,23.9,62.9,23.7,62.7 M30.8,31.9c1.4,0.2,2.8,0.2,3.7,0.7h0.2c0.4,0.2,1.1,0.7,1.2,1.8c-1.2-0.7-1.6-0.9-2.7-1.2
			C32.2,33,31.2,32.8,30.8,31.9 M29.1,29.4c0.9,0.4,0.9-0.9,1.2-0.5C30.7,29.4,29.8,30.1,29.1,29.4 M28.4,29.6
			c-0.4-0.7,0.9-1.8,1.2-1.8c0.7-0.2,1.2,0.2,1.9,0.4h1.2c0.7,0,0.5,0.7,0.5,0.7c-0.7,0.2-1.1-0.4-1.6-0.4c-0.4,0-0.9,0.2-1.2,0.2
			c-0.4,0-0.7-0.2-0.9,0c0,0-0.5,0.4-0.4,0.9C28.9,29.6,28.5,29.8,28.4,29.6 M40.4,41.5c-0.2,0-0.4-1.1-1.8-0.9
			c-0.7,0.4-1.4,0.2-1.9,0C38.8,39.5,40.6,40.6,40.4,41.5 M40.6,43.6c0.2,0.2,0.4,0.5,0.4,1.2V45v0.2v0.2v0.2v0.2v0.2v0.2v0.2v0.2
			v0.2v0.2V47v0.2v0.2v0.2v0.2v0.2V48c0,0,0,0.2-0.2,0.2v0.2c0,0,0,0.2-0.2,0.2l-0.2,0.2c0,0-0.2,0-0.2,0.2H40h-0.2v-0.2
			c0-0.2,0.2-0.4,0.4-0.7c0.2-0.2,0-0.4,0.2-0.5c0.2,0,0.4,0,0.5-0.2c-0.4-0.4-0.4-0.9,0-1.2C41.1,45.2,40.6,43.8,40.6,43.6
			 M41.5,46.6c1.4-2.5,1.2-4.1,1.2-4.4c0-2.7-1.6-4.6-1.9-5c-0.2-0.2-0.2-0.4-0.2-0.5c0-0.2,0.2-0.4,0.4-0.4
			c0.4-0.2,1.2-0.7,1.6-1.1l0.2-0.2h0.2c0.2,0,0.2,0,0.4,0.2c0.4,0.2,0.9,0.7,1.9,0.7h0.5c0.5,0,1.4-0.5,1.4-0.5
			c0.4-0.2,0.7-0.4,0.9-0.4c1.6-0.7,2.8-0.7,3.2-0.7c0.4,0,1.6,0,3.2,0.7c0.2,0,0.5,0.2,0.9,0.4c0,0,0.9,0.5,1.4,0.5h0.5
			c1.1,0,1.8-0.5,1.9-0.7c0.2-0.2,0.2-0.2,0.4-0.2h0.2l0.2,0.2c0.4,0.2,1.1,0.7,1.6,1.1c0,0,0.2,0.2,0.2,0.4c0,0.2,0,0.4-0.2,0.5
			c-0.2,0.2-1.8,2.3-1.8,4.8c0,0.4-0.2,1.9,1.2,4.4c0,0.2,1.6,2.8-0.2,5.3C60.6,51.9,59.4,54,56,54c-0.4,0-3,0-3.9,1.8
			c-0.2,0.2-0.5,0.7-0.5,1.1l-0.2,0.2c0,0-0.2,0-0.2-0.2c-0.2-0.4-0.5-0.9-0.5-1.1C49.8,54,47,54,46.8,54c-3.4,0-4.8-1.9-4.8-2.3
			C39.9,49.4,41.5,46.6,41.5,46.6 M61.3,44.8L61.3,44.8c0.2-0.2,0.4-0.2,0.5-0.2h0.4h0.4c0,0,0.4,0.4,0.4,0.7c0,0.2,0.2,0.7,0.4,0.9
			c0.2,0.2,0.2,0.5-0.4,0.5c-0.5,0-1.1-0.9-0.9-1.6h-0.4h-0.2h-0.2c-0.2,0.2-0.2,0.4-0.4,0.4C60.8,45.4,61,45,61.3,44.8 M63.4,47.3
			L63.4,47.3C63.4,47.5,63.4,47.5,63.4,47.3v0.2v0.2v0.5v0.2v0.4c0,0.4,0,0.7-0.2,1.1V50l-0.2,0.2h-0.2h-0.2h-0.2h-0.2L62.2,50
			c0,0-0.2-0.4,0.2-0.4l0.2,0.2h0.2h0.2v-0.2v-0.2v-0.2c0-0.5,0-1.4,0.2-1.8C63.3,47.3,63.3,47.3,63.4,47.3
			C63.3,47.3,63.3,47.3,63.4,47.3 M67.9,50.5c0.9,0.4,1.9,0.2,2.5-0.4h0.2c0,0,0,0.7-1.1,0.9c-1.8,0.2-3-1.4-2.8-1.4
			C66.8,49.8,67.3,50.3,67.9,50.5 M66.3,34.7c-0.2,0.4-0.5,0.9-1.1,1.1c-1.1,0.2-1.9-0.5-2.1-0.7c0-0.2,0.9,0.4,1.6,0.4
			C65.4,35.4,65.9,34.9,66.3,34.7C66.3,34.6,66.4,34.7,66.3,34.7 M62.6,29.8C62.6,29.8,62.4,29.8,62.6,29.8
			c-0.7-0.4-1.8-0.4-2.7,0.2c-0.5,0.4-1.1,0.9-1.2,0.9c-0.2,0,0.9-1.6,2.7-1.8C62.6,29.2,62.6,29.8,62.6,29.8 M75.5,35.1
			c0.2,0,0.5,0,0.7-0.2c0.2,0,0.4-0.4,0.5-0.4c0,0.2-0.2,0.2-0.2,0.2c-0.2,0.2-0.7,0.5-1.2,0.5c-0.7,0.2-1.4,0-1.8-0.5
			C74.2,34.9,74.6,35.3,75.5,35.1 M77.4,32.1c0.2-0.7,1.1-1.4,1.1-1.8c0-0.4-0.4-0.9-0.5-1.4c0-0.9,0.5-1.6,1.4-1.4
			c0.5,0.2,0.9,0.5,1.2,0.9c0.2,0.2,0.4,0.4,0.4,0.4c0.9,1.2,1.8,3.2,2.1,5c1.4,5,1.9,12.6,0.4,21.1c-0.2,0.7-0.5,2.7-0.5,2.5
			c1.6-14.2,0.7-17.5,0.4-17.5c-0.2,0.2-0.5,1.8-1.2,1.2c-0.7-0.5,1.8-3.5,0.7-5.3c-0.2-0.4-0.4,0.4-0.9,0.4c-1.1-0.4,0.5-3,0.4-3.4
			c-0.2-0.2-1.1-0.4-1.1-1.4c0-0.5,0.4-0.9,0-1.2c-0.4-0.4-0.2,0.4-0.5,0.2c-0.5-0.5,0-1.1-0.4-1.4c-0.2-0.2-0.5,0.4-0.7,0.2
			c-0.4-0.2,0.2-0.7-0.2-0.9c-0.5,0-1.1,0.5-1.1,1.2c0,0.4,0.5,0.7,0.5,1.1c0,0.4-0.5,0.9-0.5,1.1c-0.7,1.6,0.5,1.8,0.4,2.3
			c0,0.2-0.5,0.4-0.9,0.4C77.4,34,77.3,32.6,77.4,32.1 M68.8,58.3L68.8,58.3c-0.4,0.2-1.2-0.5-1.2-0.5c-0.2,0-0.5-0.4-0.9-0.2
			c-0.4,0.2-0.5,0.5-0.7,0.7v-0.2v-0.2v-0.2v-0.2h0.2c0.2-0.2,0.4-0.2,0.7-0.2c0.4,0,0.7,0.2,0.9,0.4c0.4,0.2,0.9,0.4,1.2,0.4
			C69.1,57.8,68.9,58.1,68.8,58.3 M36.7,56.3C36.7,56.5,36.7,56.5,36.7,56.3C36.7,56.5,36.7,56.5,36.7,56.3
			c-0.2,0.2-0.4,0.2-0.4,0.2h-0.5c0,0.2,0,0.2,0.2,0.4h0.2c0,0,0.2,0,0.2,0.2c0,0.2-0.4,0.4-0.5,0.4c-0.4,0-0.5-0.4-0.7-0.5h-0.2
			c-0.4-0.2-0.7-0.2-1.2-0.2c0-0.7,2.1-0.2,2.3-0.2C36.3,56.3,36.5,56.3,36.7,56.3 M46.4,67.9c0,0-1.1-0.4-2.5,0.5
			c0,0-1.1,0.7-1.4,0.7c0,0,0.2-1.2,0.5-2.7h-0.7c-0.2,1.4-0.5,2.8-1.1,3l-0.7,0.2c0-0.2,0-0.2-0.2-0.4c-0.2-0.2-0.4-0.4-0.9-0.4
			c-0.4,0.2-0.7,0.4-0.7,0.7c-0.2,0-1.4,0.2-2.1-0.4c0,0,1.2-0.5,1.4-0.9c0,0,0.4-0.7-0.9-1.4c0,0-0.9-0.5-1.2,0c0,0,0,0.2,0.4,0.7
			c0,0,0.5,0.5-0.4,0.4c0,0-0.5,0-0.7-0.4c0,0,0.2-1.6,0.5-2.7c-0.4-0.2-0.7-0.2-1.1-0.4c-0.2,0.4-0.2,0.7-0.4,1.2
			c0,0,0,0.9-0.4,1.2c0,0-1.2-1.1-0.7-2.8c-0.4-0.2-0.7-0.2-1.1-0.4c0,0.9,0.2,2.3,1.2,4.3c0,0-1.1,1.4-2.1,0.7c0,0-1.4-0.9-0.5-1.8
			c0,0,0.7-0.5,0.9,0.2c-0.4,0-0.5,0.4-0.5,0.5c0,0.4,0.4,0.5,0.5,0.5c0.4,0,0.5-0.2,0.5-0.5c0-0.2,0-0.9-0.5-1.4
			c0,0-0.5-0.5-1.4-0.4c0,0,0.9-1.1,0.9-1.9v-0.4c-0.2,0-0.5-0.2-0.7-0.4c0,0.9-0.4,2.5-1.6,2.1c0,0,0.7-1.2,1.2-2.1
			c-0.5-0.2-1.1-0.4-1.4-0.5h-0.2c0,0.4,0.2,1.2-0.4,1.8c0,0-0.5,0.5-1.6-0.2c0,0,1.4-1.2,1.8-1.6c-0.4-0.2-0.7-0.2-1.2-0.2h-0.4
			c0,0-0.9,0.7-1.6,0.9c0,0-0.2,0.2-0.4,0c0,0-1.1-1.4-0.2-2.7c0,0,0.5-1.2,1.6-1.1c0,0,0.4,0,0.5,0.4c0,0-1.1,0-0.9,0.7
			c0,0,0,0.7,1.1,0.7c0,0,1.4-0.2,1.1-1.8c0,0-0.2-0.9-1.1-0.9c0,0,0.4-0.5,0.2-0.7c0,0-0.4-0.4-1.1,0.2c0,0-0.2,0.4-1.1,0.2
			c0,0-0.5-0.2-0.9,0.2c0,0-0.2,0-0.2,0.7c0,0,0,0.2-0.4,0.9c0,0-0.2,0.4-0.2,1.1c-0.4-0.2-0.5-0.4-0.9-0.4
			c-0.4-0.5-0.5-2.7-0.9-3.5c-0.2-0.2,0.2-1.2,0.2-2.5c3.2-0.7,4.4-3.2,4.8-4.3c0.5-1.8-0.2-3.5-0.2-4.1c0.2,0.4,0.2,0.5,0.4,0.9
			c1.6,0.2,2.7-0.2,3.4-0.4h0.2h0.2c0.2,0,0.2-0.2,0.4-0.2H31c2.3-1.1,3.2-3,3.9-4.1c-0.4,0-1.2-0.4-1.6-0.9c0.9,0,1.4,0.4,2.3,0.4
			c1.2,0,1.9-0.7,3.4-0.5c0,0,0.2,0.7,1.1,1.1c0,0.7,0,1.4,0.4,1.9c0,0.2,0.2,0.2,0.2,0.2s-1.1,0.7-0.7,1.4c0,0.2,0.2,0.4,0.2,0.5
			h-0.2c-0.2,0-0.4,0.2-0.5,0.5c-0.2,0.2-0.7,1.2-0.2,1.4h0.2c-0.2,1.1-0.2,2.7,0.7,4.1c0,0.2,1.6,2.5,5.5,2.5c0.4,0,3.9,0,5.1,2.3
			c0,0.2,0.4,0.5,0.7,0.5c0.4,0,0.5-0.4,0.7-0.5c1.2-2.3,4.6-2.3,5.1-2.3c3.9,0,5.3-2.3,5.5-2.5c0.5-0.7,0.7-1.4,0.9-2.1
			c0.7-0.4,0.7-2.1,0.7-2.5c0.2,0.4,0.7,1.2,1.6,1.4c-0.2,0.9-0.2,2.1,0.7,2.3c0.4,0,0.5-0.4,0.4-0.7c0.7,2.1,0.2,3.5,0.7,3.7
			c0.7,0,0.7-1.2,0.9-1.2c0,0.2,0.4,0.5,0.4,1.1c0,0.7-0.2,1.4,0.2,1.4c1.1,0.2,0.5-2.8,1.2-2.5c-0.2,1.2,0,2.1,0.5,2.3
			c0,0.5,0,1.2-0.4,1.2c-1.4,0.4-2.8-0.9-4.1-0.5h-0.2c-2.3-1.2-3.7-0.4-3.9-0.4c-0.7-0.5-0.9,0.4-1.1,0.2c-1.2-0.7-1.9,0.5-2.1,0.5
			c-0.4,0-0.9-0.5-1.4,0.7C57.6,58.7,56.2,59,56,59c-0.5,0-0.7-0.4-0.7-0.4c0-0.2-0.2-0.4-0.2-0.4c0-0.2-0.2-0.2-0.2-0.4
			c-0.2-0.2-0.4-0.2-0.5-0.2c-0.4,0-0.7,0.4-0.7,0.7c0,0.2,0,0.4,0.2,0.5c0,0,0.2-0.2,0.4-0.2c0.4,0,0.5,0.2,0.5,0.5
			c0,0.7-0.9,1.2-0.9,1.2c-0.5,0.5-1.2-0.2-1.2-0.2c-0.4-0.4-0.7-0.4-0.7-0.4c-0.4,0-0.5,0.4-0.5,0.4s-0.2-0.4-0.5-0.4
			c0,0-0.2,0-0.7,0.4c0,0-0.7,0.7-1.2,0.2c0,0-0.9-0.7-0.9-1.2c0-0.4,0.2-0.5,0.5-0.5c0.2,0,0.4,0.2,0.4,0.2
			c0.2-0.2,0.2-0.4,0.2-0.5c0-0.4-0.4-0.7-0.7-0.7c-0.2,0-0.4,0-0.5,0.2c0,0-0.2,0.2-0.2,0.4c0,0.2-0.2,0.2-0.2,0.4
			c0,0-0.2,0.4-0.7,0.4c-0.2,0-1.4-0.4-1.8-0.9c-0.5-1.4-1.1-0.7-1.4-0.7c-0.4,0-1.1-1.2-2.1-0.5c-0.2,0.2-0.4-0.7-1.1-0.2
			c-0.2,0.2-1.2-0.5-3.2,0c-0.2-0.2-0.7-0.4-0.9-0.4c-0.4-0.2-0.7-0.4-0.9-0.5c-0.5-0.2-1.4-0.2-1.9-0.2c-0.2,0-0.5-0.2-0.7-0.4
			c-0.7-0.5-1.6-1.1-2.1-1.8c0-0.2-0.4-0.4-0.4-0.4c-0.2-0.4-0.4-0.5-0.5-1.1c-0.4-0.9,0.2-1.9,0.4-3c0-0.5,0-0.7,0.2-0.9
			c-0.7,0.2-1.8,0.2-2.8-0.2c0.4,1.1,0.4,2.1,0.2,3c0.5,0.4,0.7,0.9,0.7,1.2c0,0.5-0.2,1.1,0.2,1.4c0.4,0.5,1.4,1.1,1.9,1.4
			c0.2,0.2,2.8,2.1,3.2,2.3c0.4,0,0.5-0.2,0.9-0.2c0.2,0,0.2,0.2,0.4,0.2l0.5,0.5c-0.7,0.5-1.8,1.1-2.5,1.4c0,0-1.2,0.7-0.7,0.7
			c0,0,0.9,0,0.9,0.2c0,0-0.4,0.2-0.9,0.4c1.2,0.4,2.5,0.9,3.7,1.2c0.9-0.9,1.9-1.8,2.8-2.1c0,0,1.4,0,1.9-1.1
			c0.2-0.4,0.7,0.7,2.1-0.2c0.2,0,0.4,0.4,0.7,0.4c0.2,0-0.5,0.2-0.4,0.7c0,0-1.1,0-1.4,0.5c-0.2,0.2-2.5,0.2-4.4,1.8
			c0.4,0.2,0.7,0.2,1.1,0.2c0.7-0.5,1.4-0.9,2.5-0.7c0,0,1.2,0,1.8,1.6c0.7,0.2,1.6,0.2,2.3,0.4c0.2-0.2,1.2-0.7,0.9-1.2
			c0,0-0.2-0.4-0.7,0.2c0,0-0.4,0.2-0.4-0.2c0,0,0-0.2-0.2-0.4c0,0-0.2-0.4,0.2-0.2c0,0,0.4,0.2,0.7,0c0.4,0,0.7-0.4,0.7-0.7
			c0-0.4-0.4-0.7-0.7-0.7h-0.2l0.2,0.2c0,0.2-0.2,0.4-0.4,0.4c-0.5-0.2-0.4-1.1,0.4-1.1c0,0,0.5,0,1.1,0.5c0,0,1.1,1.6,1.9,1.9
			c0,0-0.2,0.5,0.4,0.7c0,0,0,0.5,0.5,0.4c0,0,0.2,0.2,0.4,0.5h1.6H53c0.2-0.4,0.4-0.5,0.4-0.5c0.7,0,0.5-0.4,0.7-0.4
			c0.5-0.2,0.4-0.7,0.4-0.7c0.9-0.4,1.9-1.9,1.9-1.9c0.5-0.5,1.1-0.5,1.1-0.5c0.5,0,0.7,0.9,0.4,1.1c-0.2,0-0.4-0.2-0.4-0.4
			c0,0,0-0.2,0.2-0.2c-0.4,0-0.7,0.4-0.7,0.7c0,0.4,0.4,0.7,0.7,0.7h0.7c0.4-0.2,0.2,0.2,0.2,0.2c-0.2,0.2-0.2,0.4-0.2,0.4
			c-0.2,0.4-0.4,0.2-0.4,0.2c-0.5-0.4-0.7-0.2-0.7-0.2c-0.5,0.7,0.5,1.2,0.9,1.2c0.7,0,1.6-0.2,2.3-0.4c0.5-1.4,1.8-1.6,1.8-1.6
			c0.9,0,1.8,0.4,2.5,0.7c0.4,0,0.7-0.2,1.1-0.2c-1.9-1.8-4.3-1.6-4.4-1.8c-0.4-0.5-1.4-0.5-1.4-0.5c0.2-0.5-0.5-0.7-0.4-0.7
			c0.4-0.2,0.5-0.5,0.7-0.4c1.2,0.7,1.9-0.2,2.1,0.2c0.5,1.1,1.9,1.1,1.9,1.1c1.1,0.4,2.1,1.2,2.8,2.1c1.2-0.4,2.3-0.7,3.5-1.1v-0.2
			c0-0.2-0.2-0.2-0.2-0.4c-0.4-0.5-0.7-1.1-0.9-1.2c0,0,0.9-1.2,1.4-0.4c0,0.2,0,0.4-0.5,0.4c0,0,0.7,1.1,0.7,1.6
			c0.4-0.2,0.5-0.2,0.5-0.2h0.2c-0.4-0.7-0.9-1.1-0.7-1.2c0.2,0,0.5,0.2,0.9-0.2c0-0.2,0.2-0.5,0.2-1.1c0.4,0.2,0.7,0.2,0.9,0.2
			c0.9,0,1.2-1.4,0.9-1.8c0.2,0,0.7-0.5,0.7-0.4c0.4,0.7,1.8,1.2,1.6-0.2c0.2,0.7,0.4,1.4,1.2,1.4c0.5-0.2,0.2-1.1,0.4-1.1
			c0.2,0.4,0.4,1.4,1.2,1.1c0.2-0.2,0.5-0.4,0.5-0.7c0-1.1-3-6.7-3.4-9.2h-0.2c-0.4-0.2-0.4-0.7-0.4-1.1c-0.4,0-0.9-0.4-1.1-1.4
			c0-0.9,0.4-1.4,0.5-1.4v0.2c-0.2,0.7-0.4,1.6,0.2,2.1c0.2,0.2,0.4,0.2,0.5,0.2c0.2-0.4,0.4-0.5,0.4-0.5c-0.4,0.5-0.4,1.2,0,1.6
			c0.2,0.2,0.4,0.2,0.5,0.2c0.9-0.4,1.2-1.9,1.4-2.5c0.5,0.2-0.9,3.5,0.2,4.3c0.5,0,0.7-0.5,0.9-1.1c0.4,1.1-1.2,3,0,3.5
			c0.7,0.2,0.9-1.6,0.9-1.4c0.2,2.8-1.2,4.1-0.4,4.6c0.7,0.4,1.1-1.9,1.1-1.6c0,3-1.6,3.7-0.9,4.3c0.7,0.4,1.2-1.4,1.2-1.1
			c0,2.7-1.4,3.4-0.7,4.3c0.7,0.9,1.9-1.8,1.9-1.2c0,0.5-1.4,3.7-0.5,3.9c0.7,0.2,1.1-0.9,1.1-1.1c2.3-7.6,2.3-15.1,2.1-17.5
			c-0.2-3.9-0.5-7.3-1.4-10.6c-0.5-1.9-1.6-6-4.3-6.6c-1.2-0.2-2.1,0.9-2.1,1.9c0,0.9,0.7,1.2,0.4,2.1c-0.4,0.5-0.7,1.2-0.9,1.8
			c-0.2,0.7,0.4,0.9,0.2,1.6c-0.7-0.2-1.2,0.5-2.3,0.4c-1.1,0.4-2.1,0.2-2.1,0.2c1.2,0,2.1-0.4,2.5-0.9c0.2-0.7,0.2-1.9-0.5-2.3
			c-0.7,0.2-1.1,0.7-3.4,0.5c-1.9-0.2-2.3,0.2-2.7,1.4c-0.2-0.2-0.2-0.4-0.2-0.5c0-0.7,0.7-1.1,1.4-1.1c0.2-0.4,0.2-0.5,0.2-0.7
			h-0.9c-0.9,0.2-2.1,0.7-2.5,1.6v0.5v0.4c0,0.2,0,0.2,0.2,0.4c0.4,0.7,1.1,1.1,2.5,1.1c0,0-0.4,0.2-0.7,0.2c0,0-1.4,0-2.1-0.7
			c0,0,0,0.2-0.2,0.2c-0.4,0.4-1.1,0.7-1.8,0.9c-0.7,0-1.4-0.4-1.8-0.7c-0.9-1.2,0.4-3.4,0.2-4.3c0-2.1-3-1.2-4.1-0.5
			c-1.2,0.7-2.3,1.8-3.2,2.8c-0.5,0.5-0.9,1.2-1.2,1.8c0.4,0.2,1.4,0.7,2.3,0.7h0.4c0.4,0,1.2,0,1.9-0.5c0,0,0.4-0.2,0.7-0.2
			c0.4,0,0.5,0.2,0.7,0.4c0.2,0.2,1.9,1.6,2.7,1.9c0,0,0.2,0.2,0.4,0.5c0,0.2,0,0.4-0.2,0.7c-0.2,0.2-1.1,1.2-1.6,2.7
			c-0.2,0.2-0.2,0.4-0.2,0.7c-0.2,0.7-0.4,1.9,0.7,2.5c0,0,1.2,0.4,1.1-1.6c0,0,0.2,1.2,1.1,1.2c0.4,0,0.7-0.4,0.7-1.2
			s0-1.8,0.2-2.8V40v0.5c0,0.5-0.4,5.1,3.5,8.3c0,0-1.6-0.7-2.7-2.7c-0.7,0.4-1.6,1.2-1.1,3c0.2,0.5,0.5,1.1,0.9,1.2
			c0,0-0.2,0.2-0.5-0.2l-0.2-0.2C65,50,65,49.8,64.9,49.6c-0.4-0.4-0.9-0.7-1.2-1.2c-0.4-0.7-0.2-2.5-1.9-2.5h-0.2h-0.4
			c-0.5-1.6-0.4-2.7-0.4-2.8c0.4-2.3,1.9-4.3,2.1-4.4c0,0,0.2-0.2,0.2-0.4c0-0.2-0.2-0.2-0.2-0.2c-0.5-0.4-2.5-1.8-2.7-1.9
			C60.1,36,59.9,36,59.9,36c-0.2,0-0.4,0.2-0.4,0.2c-0.7,0.5-1.6,0.7-2.1,0.7h-0.4c-1.1,0-2.3-0.7-2.7-0.7c-1.8-0.7-3.2-0.7-3.4-0.7
			c-0.2,0-1.6,0-3.4,0.7c-0.2,0.2-1.6,0.7-2.7,0.7h-0.4c-0.5,0-1.4-0.2-2.1-0.7c0,0-0.2-0.2-0.4-0.2s-0.4,0-0.4,0.2
			c-0.2,0.2-1.9,1.6-2.7,1.9L39,38.3c0,0.2,0,0.2,0.2,0.4c0.2,0.2,1.8,2.1,2.1,4.4v1.1c-0.2-0.5-0.4-0.9-0.4-1.2
			c0-0.2-0.2-0.5-0.2-0.7c-0.2-0.4-0.7-0.7-1.1-0.9c-0.4-0.2-0.7-0.2-1.1-0.5c-0.5-0.4-1.1-0.7-1.2-1.2c0-1.2-0.7-2.1-0.7-2.1
			c0.2-0.2,0.9,0.4,0.9,1.8c0.9-0.9,1.2-2.1,1.6-3.7c0.7-0.9,2.5-0.5,3.2-0.4c0.2,0,0.5,0.2,0.5,0.2c0.2,0.2,0.2,0.5,0.5,0.5
			c0.4,0.2,0.5,0,0.9,0c0.2,0.2,0.2,0.4,0.2,0.5h0.2c1.1,0,2.3-0.7,2.5-0.7h0.2c-0.4-0.5-1.1-0.7-1.6-0.7c-0.7-0.2-1.1-0.7-1.8-0.9
			c-0.2,0-0.7-0.2-0.9,0c-1.4,0.2-2.5-0.4-3.7-0.5c-1.2-0.2-1.2,0.7-1.8,1.4c-0.2,0.4-0.4,0.5-0.5,0.7c-0.4,0.4-0.7,0.4-1.2,0.7
			c-0.2-0.5-0.4-1.1-0.5-1.6c0,0,0-0.2-0.2-0.2c-0.7-1.1-1.4-1.9-3-2.3c-0.4-0.2-0.4-0.2-0.5-0.4c-0.2-0.2,0-0.4,0-0.5
			c0.5-0.2,1.2-0.2,1.8-0.4c1.2-0.5,0.7-1.6,0.4-1.8c-0.7-0.2-1.8-0.4-1.9-0.5c-0.4-0.2-0.5-0.7-0.9-0.9c-0.4-0.2-0.7-0.2-1.1,0
			c-0.4,0-0.5,0.2-0.7,0.2c0.4-0.4,0.7-0.5,1.4-0.7c-0.5-0.2-0.4-1.1-0.9-1.2c-0.2,0-0.5,0-0.9,0.2c0-0.4-0.2-1.2-0.7-1.4
			c-0.4-0.2-0.5,0.2-0.5,0.4c0,0.2,0.7,0.5,0.7,1.4c-0.2,0-0.2,0.2-0.4,0.2c0-0.4-0.2-1.1-0.7-1.2c-0.4-0.2-0.5,0.2-0.5,0.4
			c0,0.2,0.5,0.4,0.7,1.2c-0.2,0.2-0.4,0.2-0.4,0.4c-0.9-0.2-1.1-0.9-1.2-0.9c-0.2,0-0.5,0-0.4,0.5c0.2,0.4,0.9,0.7,1.2,0.7
			c0.2-1.1,0.2-1.1,0-0.9c-0.9-0.2-1.1-0.9-1.4-0.9c-0.2,0-0.5,0-0.4,0.5c0.2,0.5,1.2,0.7,1.4,0.9C26,27.6,26,28,26,28.2
			c-0.7-0.2-2.1,0.4-1.8,1.2c0.2,0.2,1.1-0.5,1.9-0.2c0.5,0.9,1.4,0.9,1.6,1.1c0.4,0.2,0.4,0.7,0.5,1.1c0.2,0.7,0.7,1.2,1.2,1.9
			c0.5,0.7,0.9,1.4,1.4,1.9c0,0.2,0.2,0.4,0,0.5c-0.5,0.9-2.1,1.9-2.8,2.5c-0.7,0.7-7.1,5.5-7.8,7.6c-0.2,0.5-0.4,1.1-0.2,1.8
			c-0.4,0.2-1.1,0-1.2-0.2c-0.4-0.5,0.4-0.9,0.2-1.6c-0.2-0.2-0.4-0.4-0.7-0.2c-0.5,0.2-0.5,1.1-0.4,1.8c0,0.2,0.4,0.4,0.2,0.5
			c-0.5-0.2-0.5-0.5-0.5-0.7c-0.2,0.2-0.2,0.4-0.2,0.5c0.2,0.5,0.7,0.5,0.9,0.5c0,0.2-0.4,0.4-0.5,0.2c-0.4,0.5,0,0.7,0.2,0.7
			c0.4,0,0.9-0.4,1.1-0.4c0.2,0.4,0,0.4-0.5,0.5c0.7,0.7,1.2-0.5,1.9-0.4c0.2,0,2.3,1.9,1.9,3.4l-0.2,0.4c-0.5,0.5-1.2,1.1-1.8,1.4
			c-1.1,0.7,1.1,5,0.9,7.1c-0.2,0.9,0.7,0.7,1.2,2.1c-0.5,0-1.1,0.2-1.2,0.5v0.2c-0.2,0.2-0.2,0.4-0.2,0.5c0,0.5,0.5,1.1,1.1,1.1
			c0.5,0,1.1-0.5,1.1-1.1v-0.2c0.2,0,0.5,0,0.9,0.2l0.9,0.5c0,0-3.2,2.7-8.5,1.1c0,0-2.5-0.7-1.8-2.8c0,0,0.2-0.4,0.5-0.5
			c0,0.4,0.2,0.5,0.5,0.7c0.2,0.2,0.4,0.2,0.7,0.2c0.7,0,1.2-0.5,1.2-1.2c0-0.4-0.2-0.5-0.4-0.9l-0.2-0.2c-0.4-0.2-0.9-0.4-1.8-0.2
			c0,0-2.3,0.7-1.4,3.2c0,0-1.6-0.4-2.1,0.4c0,0-0.2,0.2-0.2,0.5c0,0.2,0,0.4,0.2,0.5c0.2,0.2,0.4,0.4,0.7,0.4
			c0.4,0,0.5-0.2,0.7-0.4c0,0,0.2-0.2,0.5,0.2c0,0,2.1,2.5,5.3,2.1c0,0,0,1.6,1.2,1.9h0.2c0.4,0,0.5-0.2,0.5-0.5
			c0-0.4-0.2-0.5-0.5-0.5c0,0-0.2-0.5,0-0.9c0,0,3.5-0.5,5.8-2.3c0,0,1.6,0.5,2.7,0.5c0,0,0.2,0.4-0.5,0.5c0,0-0.9,0-0.9,0.4
			c0,0,0,0.4,0.7,0.4c0,0,0,0.4,0.5,0.7c0,0,0.4,0.2,0.2,0.4c0,0-0.7,0.4-0.5,0.9c0,0,0.2,0.5,1.2,0.4c0,0,0.4,0,0,0.4
			c0,0-0.5,0.5,0.4,0.9c0,0,0.7,0.4,1.1-0.4c0,0,0.2-0.2,0.5,0c0,0,2.1,0.9,3.2-0.5c0,0,0-0.2,0.4,0.2c0,0,1.1,1.2,3.9,1.4
			c0.2,0.4,0.5,0.5,0.9,0.5c0.5,0,1.1-0.4,1.1-0.9c0.4,0,1.6-0.2,3-1.1c0,0,0.5-0.4,1.1-0.5c0,0.9,0.7,1.4,1.6,1.4
			c0.9,0,1.6-0.7,1.6-1.6C47.7,68.8,47.1,68,46.4,67.9"/>
		<path class="st2" d="M126,27.6c-0.2-3.7-0.2-7.3-0.4-11c-0.4,1.8-0.7,3.2-1.1,4.3l-1.8,6.7h-3.5l-1.9-8.5
			c-0.2-0.7-0.4-1.6-0.5-2.5h-0.2l-0.2,11h-2.5l0.5-13.8h4.4c0.4,1.1,1.6,6.7,2.5,11.2h0.2c0.9-4.4,2.5-10.1,2.8-11.2h4.3l0.5,13.8
			H126z"/>
		<path class="st2" d="M132,13.6h2.7v2.5H132V13.6z M132.2,27.6v-8l-1.1-0.2v-1.8h3.7v9.9H132.2z"/>
		<path class="st2" d="M143.4,27.6v-5.8c0-1.4-0.5-2.1-1.8-2.1c-0.7,0-1.2,0.4-1.8,0.5v7.4h-2.7v-9.9h1.8l0.4,1.1
			c0.5-0.7,1.6-1.4,3.2-1.4c2.5,0,3.5,1.4,3.5,3.9v6.2h-2.7V27.6z"/>
		<path class="st2" d="M148.8,13.6h2.7v2.5h-2.7V13.6z M149,27.6v-8l-1.1-0.2v-1.8h3.7v9.9H149z"/>
		<path class="st2" d="M156.3,20.4c0,1.6,4.3,1.1,4.3,4.3c0,1.8-1.4,3.2-3.9,3.2c-1.2,0-2.3-0.4-3-0.7l0.5-1.8
			c0.5,0.4,1.4,0.7,2.3,0.7c0.9,0,1.4-0.5,1.4-1.1c0-1.8-4.3-1.2-4.3-4.6c0-1.4,1.1-2.8,3.7-2.8c1.1,0,2.1,0.2,2.8,0.5l-0.4,1.9
			c-0.7-0.4-1.6-0.5-2.3-0.5C156.6,19.5,156.3,19.8,156.3,20.4"/>
		<path class="st2" d="M166.4,27.8c-1.8,0-3-1.1-3-3.5v-4.6H162v-1.9h1.4v-1.8l2.7-0.9v2.5h2.7v2.1H166v4.8c0,0.7,0.4,1.1,1.1,1.1
			c0.5,0,1.1-0.2,1.6-0.4l0.4,1.9C168.3,27.5,167.5,27.8,166.4,27.8"/>
		<path class="st2" d="M174.4,19.5c-1.2,0-1.8,1.2-1.8,2.3h3.5C176.1,20.6,175.6,19.5,174.4,19.5 M172.4,23.4c0,1.6,0.9,2.5,2.5,2.5
			c1.1,0,1.9-0.4,2.8-0.9l0.5,1.9c-0.9,0.5-2.1,1.1-3.7,1.1c-3,0-5-1.9-5-5.1c0-3,1.4-5.1,4.6-5.1c3,0,4.3,2.3,4.3,4.8v1.2h-6V23.4z
			"/>
		<path class="st2" d="M186.2,20c-0.4-0.2-0.7-0.2-1.2-0.2c-0.7,0-1.4,0.4-1.8,0.7v7.3h-2.7V17.7h1.8c0.2,0.5,0.2,0.9,0.4,1.4
			c0.4-0.7,1.2-1.6,2.3-1.6c0.5,0,0.9,0,1.1,0.2C186.2,18.4,186.2,19.1,186.2,20"/>
		<path class="st2" d="M188.5,13.6h2.7v2.5h-2.7V13.6z M188.5,27.6v-8l-1.1-0.2v-1.8h3.7v9.9H188.5z"/>
		<path class="st2" d="M199.9,22.7c0-2.3-0.7-3.2-1.9-3.2c-1.2,0-1.9,0.9-1.9,3.2c0,2.3,0.7,3.2,1.9,3.2
			C199.2,25.9,199.9,25,199.9,22.7 M202.5,22.7c0,3.4-1.8,5.1-4.6,5.1c-3,0-4.6-1.8-4.6-5.1c0-2.8,1.6-5.1,4.6-5.1
			C200.9,17.5,202.5,19.7,202.5,22.7"/>
		<path class="st2" d="M215.1,20c-0.4-0.2-1.1-0.5-1.8-0.5c-1.2,0-2.1,0.9-2.1,3.2s0.7,3.2,1.9,3.2c0.7,0,1.4-0.4,1.8-0.9v-5H215.1z
			 M215.3,18.4c-0.2-0.5-0.2-1.1-0.2-1.8v-3h2.7v14h-2.1l-0.4-1.1c-0.4,0.5-1.4,1.2-2.7,1.2c-2.3,0-4.1-1.6-4.1-5.1
			c0-3.4,1.9-5.1,4.3-5.1C214.1,17.5,214.8,17.9,215.3,18.4"/>
		<path class="st2" d="M224.3,19.5c-1.2,0-1.8,1.2-1.8,2.3h3.5C226.1,20.6,225.6,19.5,224.3,19.5 M222.4,23.4c0,1.6,0.9,2.5,2.5,2.5
			c1.1,0,1.9-0.4,2.8-0.9l0.5,1.9c-0.9,0.5-2.1,1.1-3.7,1.1c-3,0-5-1.9-5-5.1c0-3,1.4-5.1,4.6-5.1c3,0,4.3,2.3,4.3,4.8v1.2h-6V23.4z
			"/>
		<path class="st2" d="M121,47.8h-4.1L113.1,34h3.2l3,11.5h0.2c1.1-3.7,1.9-7.6,3-11.5h2.8L121,47.8z"/>
		<path class="st2" d="M127.1,33.8h2.7v2.5h-2.7V33.8z M127.1,47.8v-8l-1.1-0.2v-1.8h3.7v9.9H127.1z"/>
		<polygon class="st2" points="137.9,47.8 134,47.8 131.1,37.9 134,37.9 136.1,46.2 136.3,46.2 138.2,37.9 140.9,37.9 		"/>
		<path class="st2" d="M143,33.8h2.7v2.5H143V33.8z M143,47.8v-8l-1.1-0.2v-1.8h3.7v9.9H143z"/>
		<path class="st2" d="M152.2,39.7c-1.2,0-1.8,1.2-1.8,2.3h3.5C154,40.8,153.6,39.7,152.2,39.7 M150.4,43.6c0,1.6,0.9,2.5,2.5,2.5
			c1.1,0,1.9-0.4,2.8-0.9l0.5,1.9c-0.7,0.4-2.1,0.9-3.7,0.9c-3,0-5-1.9-5-5.1c0-3,1.4-5.1,4.6-5.1c3,0,4.3,2.3,4.3,4.8v1.2h-6V43.6z
			"/>
		<path class="st2" d="M164.6,47.8V42c0-1.4-0.5-2.1-1.8-2.1c-0.7,0-1.2,0.4-1.8,0.5v7.4h-2.7v-9.9h1.8l0.4,1.1
			c0.5-0.7,1.6-1.4,3.2-1.4c2.5,0,3.5,1.4,3.5,4.1v6.2H164.6z"/>
		<path class="st2" d="M175.6,40.2c-0.4-0.2-1.1-0.5-1.8-0.5c-1.2,0-2.1,0.9-2.1,3.2c0,2.3,0.7,3.2,1.9,3.2c0.7,0,1.4-0.4,1.8-0.9
			v-5H175.6z M176,38.8c-0.2-0.5-0.2-1.1-0.2-1.8v-3.2h2.7v14h-2.1l-0.4-1.1c-0.5,0.5-1.4,1.2-2.7,1.2c-2.3,0-4.1-1.6-4.1-5.1
			c0-3.4,1.8-5.1,4.3-5.1C174.5,37.7,175.4,38.1,176,38.8"/>
		<path class="st2" d="M186.1,43.6h-1.6c-1.1,0-1.6,0.5-1.6,1.2c0,0.9,0.5,1.4,1.4,1.4c0.7,0,1.2-0.4,1.8-0.7V43.6z M186.9,47.8
			l-0.4-1.2c-0.5,0.7-1.6,1.4-2.8,1.4c-1.9,0-3.4-1.2-3.4-3.2c0-1.8,1.4-3,3.7-3h2.1v-0.5c0-1.2-0.7-1.6-1.8-1.6
			c-1.2,0-2.1,0.4-3,0.7l-0.7-1.9c1.1-0.4,2.3-0.9,3.9-0.9c2.8,0,4.1,1.2,4.1,3.9v6.4H186.9z"/>
		<path class="st2" d="M199.3,47.7l-1.8,0.4l-3-9.9h3l2.1,8.3c0.4-1.4,1.8-6.9,2.1-8.3h2.7l-3,10.1c-0.9,2.8-2.3,3.9-4.3,3.9
			c-1.1,0-2.3-0.7-2.8-1.1l0.9-1.8h0.2c0,0,0.9,0.7,1.8,0.7c1.1,0,1.8-0.7,2.1-1.9V47.7z"/>
		<path class="st2" d="M124.6,62.9c0,2.8-1.6,5.3-5.1,5.3c-3.5,0-5.1-2.5-5.1-5.3v-8.7h2.7v8.5c0,1.9,0.9,3.4,2.5,3.4
			s2.5-1.4,2.5-3.4v-8.5h2.7V62.9z"/>
		<path class="st2" d="M132.7,60.4c-0.4-0.2-0.7-0.2-1.2-0.2c-0.7,0-1.4,0.4-1.8,0.7v7.3h-2.7v-9.9h1.8c0.2,0.5,0.2,0.9,0.4,1.4
			c0.4-0.7,1.2-1.6,2.3-1.6c0.5,0,0.9,0,1.1,0.2C132.7,58.8,132.7,59.7,132.7,60.4"/>
		<path class="st2" d="M137,65.4c0.4,0.5,1.1,1.1,1.8,1.1c1.2,0,1.9-0.9,1.9-3.2c0-2.3-0.7-3.2-1.9-3.2c-0.7,0-1.4,0.4-1.8,0.7V65.4
			z M136.8,59.2c0.5-0.5,1.6-1.2,2.7-1.2c2.3,0,4.1,1.6,4.1,5.1c0,3.4-1.9,5.1-4.3,5.1c-1.4,0-2.3-0.5-2.8-1.4l-0.5,1.2h-1.4V54h2.7
			v3.5L136.8,59.2z"/>
		<path class="st2" d="M150.8,63.8h-1.6c-1.1,0-1.6,0.5-1.6,1.2c0,0.9,0.5,1.4,1.4,1.4c0.7,0,1.2-0.4,1.8-0.7V63.8z M151.5,68
			l-0.4-1.2c-0.5,0.7-1.6,1.4-2.8,1.4c-1.9,0-3.4-1.2-3.4-3.2c0-1.8,1.4-3,3.7-3h2.1v-0.5c0-1.2-0.7-1.6-1.8-1.6
			c-1.2,0-2.1,0.4-3,0.7l-0.7-1.8c1.1-0.4,2.3-0.9,3.9-0.9c2.8,0,4.1,1.2,4.1,3.9v6.4h-1.8V68z"/>
		<path class="st2" d="M161.8,68v-5.8c0-1.4-0.5-2.1-1.8-2.1c-0.7,0-1.2,0.4-1.8,0.5V68h-2.7v-9.9h1.8l0.4,1.1
			c0.5-0.7,1.6-1.4,3.2-1.4c2.5,0,3.5,1.4,3.5,4.1V68H161.8z"/>
		<path class="st2" d="M167.3,54.2h2.7v2.5h-2.7V54.2z M167.3,68v-8l-1.1-0.2v-1.8h3.7V68H167.3z"/>
		<path class="st2" d="M174.7,60.8c0,1.6,4.3,1.1,4.3,4.3c0,1.8-1.4,3.2-3.9,3.2c-1.2,0-2.3-0.4-3-0.7l0.5-1.8
			c0.5,0.4,1.4,0.7,2.3,0.7c0.9,0,1.4-0.5,1.4-1.1c0-1.8-4.3-1.2-4.3-4.6c0-1.4,1.1-2.8,3.7-2.8c1.1,0,2.1,0.2,2.8,0.5l-0.4,1.9
			c-0.7-0.4-1.6-0.5-2.3-0.5C175.1,59.9,174.7,60.2,174.7,60.8"/>
		<path class="st2" d="M189.8,62v6.2h-2.7v-6c0-1.4-0.5-2.1-1.8-2.1c-0.7,0-1.2,0.4-1.6,0.5V68h-2.7v-9.9h1.8l0.5,1.2
			c0.5-0.7,1.6-1.4,3-1.4c1.6,0,2.7,0.5,3,1.4c0.5-0.7,1.6-1.4,3-1.4c2.8,0,3.7,1.4,3.7,4.1v6.2h-3v-6c0-1.4-0.7-2.1-1.9-2.1
			c-0.7,0-1.2,0.4-1.6,0.5C189.8,61,189.8,61.5,189.8,62"/>
		<path class="st2" d="M204.1,63.1c0-2.3-0.7-3.2-1.9-3.2c-1.2,0-1.9,0.9-1.9,3.2c0,2.3,0.5,3.2,1.9,3.2
			C203.6,66.4,204.1,65.6,204.1,63.1 M207,63.1c0,3.4-1.8,5.1-4.6,5.1c-3,0-4.6-1.8-4.6-5.1c0-2.8,1.6-5.1,4.6-5.1
			C205.2,57.9,207,60.2,207,63.1"/>
		<path class="st2" d="M122.8,218.7c-1.6,0.7-2.8,1.1-4.3,1.1c-3.4,0-5-2.3-5-5.8c0-3.4,1.8-5.7,5.1-5.7c1.8,0,2.8,0.4,3.7,1.1
			l-0.9,1.6c-0.7-0.4-1.6-0.7-2.7-0.7c-1.9,0-2.8,1.6-2.8,3.7c0,2.7,0.9,4.1,2.8,4.1c0.7,0,1.4-0.2,1.9-0.4v-2.1h-1.6l-0.2-1.6h3.7
			V218.7z"/>
		<path class="st2" d="M129.7,215.5c0-1.9-0.5-2.7-1.6-2.7c-1.1,0-1.6,0.7-1.6,2.7c0,1.9,0.5,2.7,1.6,2.7
			C129.2,218.1,129.7,217.4,129.7,215.5 M131.8,215.5c0,2.8-1.4,4.3-3.7,4.3c-2.5,0-3.7-1.4-3.7-4.3c0-2.3,1.2-4.3,3.7-4.3
			C130.4,211.2,131.8,213,131.8,215.5"/>
		<path class="st2" d="M135.6,217.2c0.4,0.5,0.9,0.9,1.4,0.9c0.9,0,1.6-0.7,1.6-2.7c0-1.9-0.5-2.7-1.6-2.7c-0.5,0-1.1,0.4-1.4,0.7
			V217.2z M135.4,212.3c0.4-0.5,1.2-1.1,2.1-1.1c1.9,0,3.2,1.4,3.2,4.3c0,2.8-1.6,4.3-3.5,4.3c-1.2,0-1.8-0.5-2.3-1.1l-0.4,0.9h-1.2
			v-11.3h2.1v2.8V212.3z"/>
		<path class="st2" d="M143.2,208h2.1v1.9h-2.1V208z M143.2,219.5V213l-0.9-0.2v-1.4h3v8.2H143.2z"/>
		<path class="st2" d="M150.6,212.8c-1.1,0-1.6,1.1-1.6,1.9h3C152,213.7,151.9,212.8,150.6,212.8 M149.2,216c0,1.2,0.7,1.9,2.1,1.9
			c0.9,0,1.6-0.4,2.3-0.7l0.4,1.6c-0.7,0.4-1.8,0.9-3,0.9c-2.5,0-4.1-1.6-4.1-4.3c0-2.5,1.2-4.3,3.7-4.3s3.4,1.8,3.4,3.9v0.9H149.2z
			"/>
		<path class="st2" d="M160.4,213.2c-0.2,0-0.7-0.2-1.1-0.2c-0.5,0-1.1,0.2-1.4,0.5v5.8h-2.1v-8.2h1.4c0,0.4,0.2,0.7,0.2,1.1
			c0.2-0.5,1.1-1.2,1.9-1.2c0.4,0,0.7,0,0.9,0.2C160.5,211.9,160.5,212.6,160.4,213.2"/>
		<path class="st2" d="M166.7,219.5v-4.8c0-1.2-0.5-1.8-1.4-1.8c-0.5,0-1.1,0.2-1.4,0.5v6.2h-2.1v-8.2h1.4l0.4,0.9
			c0.5-0.5,1.4-1.1,2.5-1.1c2.1,0,2.8,1.2,2.8,3.2v5H166.7z"/>
		<path class="st2" d="M175.8,215.5c0-1.9-0.5-2.7-1.6-2.7c-1.1,0-1.6,0.7-1.6,2.7c0,1.9,0.5,2.7,1.6,2.7
			C175.2,218.1,175.8,217.4,175.8,215.5 M178.1,215.5c0,2.8-1.4,4.3-3.7,4.3c-2.5,0-3.7-1.4-3.7-4.3c0-2.3,1.2-4.3,3.7-4.3
			C176.7,211.2,178.1,213,178.1,215.5"/>
		<path class="st2" d="M188.4,213.3c-0.4-0.2-0.9-0.4-1.4-0.4c-1.1,0-1.6,0.7-1.6,2.7s0.5,2.7,1.6,2.7c0.5,0,1.1-0.2,1.4-0.7V213.3z
			 M188.5,212.1c-0.2-0.5-0.2-0.9-0.2-1.4v-2.5h2.1v11.3h-1.8l-0.2-0.9c-0.4,0.5-1.1,1.1-2.1,1.1c-1.8,0-3.4-1.2-3.4-4.3
			c0-2.7,1.6-4.3,3.5-4.3C187.3,211.2,188,211.6,188.5,212.1"/>
		<path class="st2" d="M195.8,212.8c-1.1,0-1.4,1.1-1.4,1.9h3C197.2,213.7,196.9,212.8,195.8,212.8 M194.4,216
			c0,1.2,0.7,1.9,2.1,1.9c0.9,0,1.6-0.4,2.3-0.7l0.4,1.6c-0.7,0.4-1.8,0.9-3,0.9c-2.5,0-4.1-1.6-4.1-4.3c0-2.5,1.2-4.3,3.7-4.3
			c2.5,0,3.4,1.8,3.4,3.9v0.9H194.4z"/>
		<path class="st2" d="M209.1,219.7c-3.2,0-4.8-2.1-4.8-5.8c0-3.4,1.6-5.7,4.8-5.7c1.6,0,2.8,0.4,3.7,0.9l-0.9,1.8
			c-0.5-0.4-1.6-0.7-2.7-0.7c-1.8,0-2.8,1.4-2.8,3.9c0,2.7,0.9,3.9,2.8,3.9c1.1,0,2.1-0.5,3-1.1l0.7,1.8
			C211.9,219.2,210.7,219.7,209.1,219.7"/>
		<path class="st2" d="M214.4,219.5v-11.3h2.1v3c0,0.5-0.2,1.1-0.2,1.2c0.5-0.5,1.1-1.1,2.3-1.1c2.3,0,3,1.2,3,3.2v5h-2.1v-4.8
			c0-0.2,0-0.4-0.2-0.5c0-0.9-0.5-1.2-1.4-1.2c-0.5,0-1.1,0.2-1.4,0.5v6.2h-2.1V219.5z"/>
		<path class="st2" d="M224.2,208h2.1v1.9h-2.1V208z M224.2,219.5V213l-0.9-0.2v-1.4h3v8.2H224.2z"/>
		<path class="st2" d="M228.2,217.4v-9.2h2.1v9.2c0,0.7,0.4,0.7,1.2,0.7v1.6c0,0-0.7,0.2-1.2,0.2
			C228.9,219.7,228.2,218.8,228.2,217.4"/>
		<path class="st2" d="M236.6,212.8c-1.1,0-1.6,1.1-1.6,1.9h3C238,213.7,237.6,212.8,236.6,212.8 M235,216c0,1.2,0.7,1.9,2.1,1.9
			c0.9,0,1.6-0.4,2.3-0.7l0.4,1.6c-0.7,0.4-1.8,0.9-3,0.9c-2.5,0-4.1-1.6-4.1-4.3c0-2.5,1.2-4.3,3.7-4.3c2.5,0,3.4,1.8,3.4,3.9v0.9
			H235z"/>
		<g>
			<path class="st3" d="M297.6,37.1c0-1.6,0.5-2.9,1.4-3.8c0.9-0.9,2.2-1.4,3.8-1.4h18.6c0.3,0.4,0.5,1,0.7,1.6
				c0.2,0.7,0.3,1.4,0.3,2.1c0,1.4-0.3,2.4-0.9,3c-0.6,0.6-1.4,0.9-2.4,0.9h-11.9v5.2h12.7c0.3,0.4,0.5,0.9,0.7,1.6
				c0.2,0.7,0.3,1.4,0.3,2.1c0,1.4-0.3,2.4-0.9,3c-0.6,0.6-1.4,0.9-2.4,0.9h-10.4v5.9h14.5c0.3,0.4,0.5,1,0.7,1.6
				c0.2,0.7,0.3,1.4,0.3,2.1c0,1.4-0.3,2.4-0.9,3.1c-0.6,0.6-1.4,0.9-2.4,0.9h-16.4c-1.6,0-2.9-0.5-3.8-1.4
				c-0.9-0.9-1.4-2.2-1.4-3.8V37.1z"/>
			<path class="st3" d="M358.2,64.8c-0.5,0.5-1.3,0.9-2.3,1.2c-1,0.3-2.2,0.4-3.6,0.4c-1.4,0-2.7-0.2-3.9-0.6c-1.2-0.4-2.3-1.4-3-3
				l-5.6-11.4c-0.6-1.2-1.1-2.3-1.5-3.3c-0.4-1-0.9-2.2-1.5-3.6l-0.3,0.1c0.1,2,0.2,4.1,0.3,6.2c0,2.1,0,4.2,0,6.2v8.7
				c-0.4,0.1-1,0.2-1.9,0.3c-0.8,0.1-1.7,0.2-2.5,0.2c-0.8,0-1.6-0.1-2.2-0.2c-0.6-0.1-1.2-0.3-1.6-0.7c-0.4-0.3-0.7-0.8-1-1.4
				c-0.2-0.6-0.3-1.3-0.3-2.3V33.6c0.5-0.8,1.3-1.3,2.4-1.7c1.1-0.4,2.3-0.6,3.5-0.6c1.4,0,2.7,0.2,4,0.6c1.3,0.4,2.3,1.4,3,3
				l5.6,11.4c0.6,1.2,1.1,2.3,1.5,3.3c0.5,1,0.9,2.2,1.5,3.6l0.3-0.1c-0.2-2-0.2-4.1-0.3-6.1c0-2-0.1-4.1-0.1-6.1v-9.1
				c0.4-0.1,1-0.2,1.9-0.3c0.8-0.1,1.7-0.2,2.5-0.2c1.7,0,2.9,0.3,3.8,0.9c0.9,0.6,1.3,1.8,1.3,3.6V64.8z"/>
			<path class="st3" d="M374.6,37.1c0-1.6,0.5-2.9,1.4-3.8c0.9-0.9,2.2-1.4,3.8-1.4h18.6c0.3,0.4,0.5,1,0.7,1.6
				c0.2,0.7,0.3,1.4,0.3,2.1c0,1.4-0.3,2.4-0.9,3c-0.6,0.6-1.4,0.9-2.4,0.9h-11.9v5.2h12.7c0.3,0.4,0.5,0.9,0.7,1.6
				c0.2,0.7,0.3,1.4,0.3,2.1c0,1.4-0.3,2.4-0.9,3c-0.6,0.6-1.4,0.9-2.4,0.9h-10.4v5.9h14.5c0.3,0.4,0.5,1,0.7,1.6
				c0.2,0.7,0.3,1.4,0.3,2.1c0,1.4-0.3,2.4-0.9,3.1c-0.6,0.6-1.4,0.9-2.4,0.9h-16.4c-1.6,0-2.9-0.5-3.8-1.4
				c-0.9-0.9-1.4-2.2-1.4-3.8V37.1z"/>
			<path class="st3" d="M409.5,66.1c-1.6,0-2.9-0.5-3.8-1.4c-0.9-0.9-1.4-2.2-1.4-3.8V31.8c0.4-0.1,1.1-0.2,2-0.3
				c0.9-0.1,1.8-0.2,2.6-0.2c0.9,0,1.6,0.1,2.3,0.2c0.7,0.1,1.2,0.4,1.7,0.7c0.5,0.3,0.8,0.8,1,1.4c0.2,0.6,0.3,1.4,0.3,2.4v22.2
				H427c0.3,0.4,0.5,1,0.7,1.7c0.2,0.7,0.3,1.4,0.3,2.2c0,1.5-0.3,2.6-1,3.2c-0.6,0.6-1.5,0.9-2.5,0.9H409.5z"/>
			<path class="st3" d="M315,83.5c-2.9,0-5.1,0.9-6.6,2.6c-1.5,1.8-2.3,4.3-2.3,7.5c0,3.3,0.9,5.8,2.6,7.5c1.7,1.8,4,2.6,6.9,2.6
				c1.5,0,2.8-0.2,3.9-0.6c1.1-0.4,2.1-0.9,3.1-1.4c0.6,0.5,1.1,1.2,1.5,1.9c0.4,0.7,0.5,1.6,0.5,2.6c0,1.5-0.9,2.8-2.6,3.9
				c-1.7,1.1-4.3,1.6-7.8,1.6c-2.5,0-4.9-0.4-7.1-1.1c-2.2-0.7-4.1-1.8-5.8-3.3c-1.7-1.5-3-3.4-3.9-5.6c-1-2.3-1.4-5-1.4-8.1
				c0-2.9,0.5-5.5,1.4-7.7c0.9-2.2,2.2-4.1,3.8-5.7c1.6-1.5,3.5-2.7,5.6-3.5c2.1-0.8,4.4-1.2,6.9-1.2c3.5,0,6.1,0.6,8,1.7
				c1.9,1.1,2.8,2.6,2.8,4.3c0,1-0.2,1.8-0.7,2.5c-0.5,0.7-1.1,1.3-1.7,1.7c-1-0.6-2-1.2-3.1-1.6C317.8,83.8,316.5,83.5,315,83.5"/>
			<path class="st3" d="M326.4,93.7c0-2.9,0.5-5.5,1.4-7.8c0.9-2.3,2.2-4.1,3.8-5.7c1.6-1.5,3.5-2.7,5.6-3.5c2.2-0.8,4.5-1.2,7-1.2
				c2.5,0,4.8,0.4,7,1.2c2.2,0.8,4,1.9,5.7,3.5c1.6,1.5,2.9,3.4,3.8,5.7c0.9,2.3,1.4,4.8,1.4,7.8c0,2.9-0.5,5.5-1.4,7.8
				c-0.9,2.3-2.1,4.2-3.7,5.7c-1.6,1.5-3.5,2.7-5.7,3.5c-2.2,0.8-4.5,1.2-7.1,1.2c-2.6,0-4.9-0.4-7.1-1.2c-2.2-0.8-4.1-2-5.6-3.5
				c-1.6-1.5-2.8-3.4-3.7-5.7C326.8,99.1,326.4,96.6,326.4,93.7 M336.5,93.7c0,3.4,0.7,6,2.1,7.7c1.4,1.7,3.2,2.5,5.6,2.5
				c2.4,0,4.2-0.8,5.6-2.5c1.4-1.7,2.1-4.2,2.1-7.7c0-3.4-0.7-5.9-2.1-7.6c-1.4-1.7-3.2-2.5-5.6-2.5c-2.3,0-4.2,0.8-5.6,2.5
				C337.2,87.7,336.5,90.3,336.5,93.7"/>
			<path class="st3" d="M376.3,99.8v10.8c-0.4,0.1-1.1,0.2-1.9,0.3c-0.9,0.1-1.8,0.2-2.6,0.2c-0.9,0-1.6-0.1-2.3-0.2
				c-0.7-0.1-1.2-0.4-1.6-0.7c-0.4-0.3-0.8-0.8-1-1.4c-0.2-0.6-0.3-1.4-0.3-2.4V79.9c0-0.8,0.2-1.4,0.6-1.8c0.4-0.4,1-0.8,1.8-1
				c1.3-0.5,2.8-0.8,4.4-1c1.7-0.2,3.5-0.3,5.4-0.3c5.2,0,9.1,1.1,11.7,3.3c2.6,2.2,3.9,5.1,3.9,8.8c0,2.3-0.6,4.3-1.8,6
				c-1.2,1.7-2.6,2.9-4.3,3.8c1.4,1.8,2.7,3.6,4,5.2c1.3,1.6,2.3,3.1,3.1,4.4c-0.4,1.3-1.1,2.3-2.1,3c-1,0.7-2.1,1-3.3,1
				c-0.8,0-1.5-0.1-2.1-0.3c-0.6-0.2-1.1-0.5-1.6-0.8c-0.5-0.3-0.9-0.8-1.2-1.2c-0.4-0.5-0.7-1-1.1-1.6l-4.7-7.6H376.3z M379.9,92.3
				c1.4,0,2.6-0.4,3.4-1.1c0.8-0.7,1.2-1.8,1.2-3.2c0-1.4-0.5-2.5-1.4-3.2c-0.9-0.7-2.4-1.1-4.4-1.1c-0.6,0-1,0-1.4,0.1
				c-0.3,0-0.7,0.1-1.1,0.2v8.4H379.9z"/>
			<path class="st3" d="M407.4,77.7c0.6-0.4,1.6-0.7,2.9-1.1c1.3-0.3,2.6-0.5,3.9-0.5c1.9,0,3.5,0.3,5,0.8c1.4,0.5,2.4,1.4,2.8,2.6
				c0.7,2,1.4,4.2,2.2,6.8c0.8,2.6,1.6,5.3,2.4,8c0.8,2.8,1.6,5.5,2.3,8.2c0.8,2.7,1.4,5.1,2,7.1c-0.5,0.5-1.1,0.9-2,1.3
				c-0.9,0.3-2,0.5-3.2,0.5c-0.9,0-1.7-0.1-2.3-0.2c-0.6-0.2-1.1-0.4-1.5-0.7c-0.4-0.3-0.7-0.7-1-1.2c-0.2-0.5-0.5-1-0.6-1.7l-1-3.9
				H409c-0.3,1.1-0.6,2.3-0.9,3.5c-0.3,1.2-0.6,2.4-0.9,3.5c-0.5,0.2-1.1,0.3-1.7,0.5c-0.6,0.1-1.3,0.2-2.1,0.2
				c-1.9,0-3.3-0.3-4.2-1c-0.9-0.7-1.4-1.6-1.4-2.7c0-0.5,0.1-1.1,0.2-1.6c0.1-0.5,0.3-1.1,0.5-1.9c0.3-1,0.6-2.3,1.1-3.8
				c0.5-1.5,1-3.1,1.5-4.9c0.6-1.7,1.2-3.5,1.8-5.4c0.6-1.8,1.2-3.6,1.8-5.2c0.6-1.6,1.1-3.1,1.5-4.4
				C406.8,79.3,407.1,78.4,407.4,77.7 M414.1,84.9c-0.5,1.6-1.1,3.3-1.8,5.3c-0.7,1.9-1.2,3.9-1.8,5.9h7c-0.5-2-1.1-4-1.6-5.9
				c-0.5-1.9-1-3.7-1.5-5.2H414.1z"/>
			<path class="st3" d="M448.2,84.6h-13.8c-0.3-0.4-0.5-1-0.7-1.7c-0.2-0.7-0.3-1.5-0.3-2.3c0-1.5,0.3-2.5,1-3.2
				c0.7-0.6,1.5-1,2.6-1h21c1.7,1.4,2.5,3.2,2.5,5.4c0,0.9-0.2,1.9-0.6,2.8c-0.4,0.9-1,1.8-1.7,2.6l-12.8,15.4h14.4
				c0.3,0.4,0.5,1,0.7,1.7c0.2,0.7,0.3,1.5,0.3,2.3c0,1.5-0.3,2.5-1,3.2c-0.7,0.6-1.5,1-2.6,1H435c-0.6-0.5-1.2-1.2-1.6-2.1
				c-0.4-0.9-0.6-1.9-0.6-3.1c0-0.9,0.2-1.9,0.7-2.9c0.5-1,1.1-1.9,1.7-2.7L448.2,84.6z"/>
			<path class="st3" d="M526.3,109.6c-0.5,0.5-1.3,0.9-2.3,1.2c-1,0.3-2.2,0.4-3.6,0.4c-1.4,0-2.7-0.2-3.9-0.6c-1.2-0.4-2.3-1.4-3-3
				l-5.6-11.4c-0.6-1.2-1.1-2.3-1.5-3.3c-0.5-1-0.9-2.2-1.5-3.6l-0.3,0.1c0.2,2,0.2,4.1,0.3,6.2c0,2.1,0,4.2,0,6.2v8.7
				c-0.4,0.1-1,0.2-1.9,0.3c-0.8,0.1-1.7,0.2-2.5,0.2c-0.8,0-1.6-0.1-2.2-0.2c-0.6-0.1-1.2-0.3-1.6-0.7c-0.4-0.3-0.7-0.8-1-1.4
				c-0.2-0.6-0.3-1.3-0.3-2.3V78.4c0.5-0.8,1.3-1.3,2.4-1.7c1.1-0.4,2.3-0.6,3.5-0.6c1.4,0,2.7,0.2,4,0.6c1.3,0.4,2.3,1.4,3,3
				l5.6,11.4c0.6,1.2,1.1,2.3,1.5,3.3c0.5,1,0.9,2.2,1.5,3.6l0.3-0.1c-0.2-2-0.2-4.1-0.3-6.1c0-2-0.1-4.1-0.1-6.1v-9.1
				c0.4-0.1,1-0.2,1.9-0.3c0.8-0.1,1.7-0.2,2.5-0.2c1.7,0,2.9,0.3,3.8,0.9c0.9,0.6,1.3,1.8,1.3,3.6V109.6z"/>
			<path class="st4" d="M310.6,156.5c-0.6,0-1.4,0-2.2-0.1c-0.8,0-1.7-0.1-2.6-0.2c-0.9-0.1-1.8-0.3-2.6-0.4
				c-0.9-0.2-1.7-0.4-2.4-0.7c-2.1-0.8-3.1-2.2-3.1-4.1v-26.3c0-0.8,0.2-1.4,0.6-1.8c0.4-0.4,1-0.8,1.8-1c1.6-0.5,3.3-0.9,5.1-1
				c1.8-0.2,3.4-0.3,4.8-0.3c2.9,0,5.6,0.4,8,1.1c2.4,0.7,4.4,1.8,6.1,3.3c1.7,1.5,3,3.4,4,5.6c0.9,2.3,1.4,4.9,1.4,8
				c0,3-0.5,5.6-1.4,7.9c-0.9,2.2-2.2,4.1-3.9,5.6c-1.7,1.5-3.7,2.7-6,3.4C315.9,156.2,313.4,156.5,310.6,156.5 M307.4,148.3
				c0.4,0.1,0.9,0.1,1.5,0.2c0.6,0.1,1.2,0.1,1.7,0.1c1.3,0,2.4-0.2,3.5-0.6c1.1-0.4,2-1,2.8-1.7c0.8-0.8,1.4-1.8,1.8-3.1
				c0.4-1.3,0.6-2.8,0.6-4.5c0-3.4-0.8-5.9-2.4-7.6c-1.6-1.7-3.7-2.6-6.3-2.6c-0.5,0-1.1,0-1.6,0.1c-0.5,0-1.1,0.1-1.7,0.2V148.3z"
				/>
			<path class="st4" d="M334,126.8c0-1.6,0.5-2.9,1.4-3.8c0.9-0.9,2.2-1.4,3.8-1.4h18.6c0.3,0.4,0.5,1,0.7,1.6
				c0.2,0.7,0.3,1.4,0.3,2.1c0,1.4-0.3,2.4-0.9,3c-0.6,0.6-1.4,0.9-2.4,0.9h-11.9v5.2h12.7c0.3,0.4,0.5,0.9,0.7,1.6
				c0.2,0.7,0.3,1.4,0.3,2.1c0,1.4-0.3,2.4-0.9,3c-0.6,0.6-1.4,0.9-2.4,0.9h-10.4v5.9H358c0.3,0.4,0.5,1,0.7,1.6
				c0.2,0.7,0.3,1.4,0.3,2.1c0,1.4-0.3,2.4-0.9,3.1c-0.6,0.6-1.4,0.9-2.4,0.9h-16.4c-1.6,0-2.9-0.5-3.8-1.4s-1.4-2.2-1.4-3.8V126.8z
				"/>
			<path class="st4" d="M379.1,155.8c-1.6,0-2.9-0.5-3.8-1.4c-0.9-0.9-1.4-2.2-1.4-3.8v-29.1c0.4-0.1,1.1-0.2,2-0.3
				c0.9-0.1,1.8-0.2,2.6-0.2c0.9,0,1.6,0.1,2.3,0.2c0.7,0.1,1.2,0.4,1.7,0.7c0.5,0.3,0.8,0.8,1,1.4c0.2,0.6,0.3,1.4,0.3,2.4v22.2
				h12.9c0.3,0.4,0.5,1,0.7,1.7c0.2,0.7,0.3,1.4,0.3,2.2c0,1.5-0.3,2.6-1,3.2c-0.6,0.6-1.5,0.9-2.5,0.9H379.1z"/>
			<path class="st4" d="M409.4,122.5c0.6-0.4,1.6-0.7,2.9-1.1c1.3-0.3,2.6-0.5,3.9-0.5c1.9,0,3.5,0.3,5,0.8c1.4,0.5,2.4,1.4,2.8,2.6
				c0.7,2,1.4,4.2,2.2,6.8c0.8,2.6,1.6,5.3,2.4,8c0.8,2.8,1.6,5.5,2.3,8.2c0.8,2.7,1.4,5.1,2,7.1c-0.5,0.5-1.1,0.9-2,1.3
				c-0.9,0.3-2,0.5-3.2,0.5c-0.9,0-1.7-0.1-2.3-0.2c-0.6-0.2-1.1-0.4-1.5-0.7c-0.4-0.3-0.7-0.7-1-1.2c-0.2-0.5-0.5-1-0.6-1.7l-1-3.9
				H411c-0.3,1.1-0.6,2.3-0.9,3.5c-0.3,1.2-0.6,2.4-0.9,3.5c-0.5,0.2-1.1,0.3-1.7,0.5c-0.6,0.1-1.3,0.2-2.1,0.2
				c-1.9,0-3.3-0.3-4.2-1c-0.9-0.7-1.4-1.6-1.4-2.7c0-0.5,0.1-1.1,0.2-1.6c0.1-0.5,0.3-1.1,0.5-1.9c0.3-1,0.6-2.3,1.1-3.8
				c0.5-1.5,1-3.1,1.5-4.9c0.6-1.7,1.2-3.5,1.8-5.4c0.6-1.8,1.2-3.6,1.8-5.2c0.6-1.6,1.1-3.1,1.5-4.4
				C408.8,124.2,409.1,123.2,409.4,122.5 M416.2,129.8c-0.5,1.6-1.1,3.3-1.8,5.3c-0.7,1.9-1.2,3.9-1.8,5.9h7c-0.5-2-1.1-4-1.6-5.9
				c-0.5-1.9-1-3.7-1.5-5.2H416.2z"/>
			<path class="st4" d="M307.4,189.5v10.8c-0.4,0.1-1.1,0.2-1.9,0.3c-0.9,0.1-1.8,0.2-2.6,0.2c-0.9,0-1.6-0.1-2.3-0.2
				c-0.7-0.1-1.2-0.4-1.6-0.7c-0.4-0.3-0.8-0.8-1-1.4c-0.2-0.6-0.3-1.4-0.3-2.4v-26.5c0-0.8,0.2-1.4,0.6-1.8c0.4-0.4,1-0.8,1.8-1
				c1.3-0.5,2.8-0.8,4.4-1c1.7-0.2,3.5-0.3,5.4-0.3c5.2,0,9.1,1.1,11.7,3.3c2.6,2.2,3.9,5.1,3.9,8.8c0,2.3-0.6,4.3-1.8,6
				c-1.2,1.7-2.6,2.9-4.3,3.8c1.4,1.8,2.7,3.6,4,5.2c1.3,1.6,2.3,3.1,3.1,4.4c-0.4,1.3-1.1,2.3-2.1,3c-1,0.7-2.1,1-3.3,1
				c-0.8,0-1.5-0.1-2.1-0.3c-0.6-0.2-1.1-0.5-1.6-0.8c-0.4-0.3-0.9-0.8-1.2-1.2c-0.4-0.5-0.7-1-1.1-1.6l-4.7-7.6H307.4z M311,182
				c1.4,0,2.6-0.4,3.4-1.1c0.8-0.7,1.2-1.8,1.2-3.2c0-1.4-0.5-2.5-1.4-3.2c-0.9-0.7-2.4-1.1-4.4-1.1c-0.6,0-1,0-1.4,0.1
				c-0.3,0-0.7,0.1-1.1,0.2v8.4H311z"/>
			<path class="st4" d="M330.8,171.6c0-1.6,0.5-2.9,1.4-3.8c0.9-0.9,2.2-1.4,3.8-1.4h18.6c0.3,0.4,0.5,1,0.7,1.6
				c0.2,0.7,0.3,1.4,0.3,2.1c0,1.4-0.3,2.4-0.9,3c-0.6,0.6-1.4,0.9-2.4,0.9h-11.9v5.2H353c0.3,0.4,0.5,0.9,0.7,1.6
				c0.2,0.7,0.3,1.4,0.3,2.1c0,1.4-0.3,2.4-0.9,3c-0.6,0.6-1.4,0.9-2.4,0.9h-10.4v5.9h14.5c0.3,0.4,0.5,1,0.7,1.6
				c0.2,0.7,0.3,1.4,0.3,2.1c0,1.4-0.3,2.4-0.9,3.1c-0.6,0.6-1.4,0.9-2.4,0.9H336c-1.6,0-2.9-0.5-3.8-1.4c-0.9-0.9-1.4-2.2-1.4-3.8
				V171.6z"/>
			<path class="st4" d="M377.5,173.2c-2.9,0-5.1,0.9-6.6,2.6c-1.5,1.8-2.3,4.3-2.3,7.5c0,3.3,0.9,5.8,2.6,7.5c1.7,1.8,4,2.6,6.9,2.6
				c1.5,0,2.8-0.2,3.9-0.6c1.1-0.4,2.1-0.9,3.1-1.4c0.6,0.5,1.1,1.2,1.5,1.9c0.4,0.7,0.5,1.6,0.5,2.6c0,1.5-0.9,2.8-2.6,3.9
				c-1.7,1.1-4.3,1.6-7.8,1.6c-2.5,0-4.9-0.4-7.1-1.1c-2.2-0.7-4.1-1.8-5.8-3.3c-1.7-1.5-3-3.4-3.9-5.6c-1-2.3-1.4-5-1.4-8.1
				c0-2.9,0.5-5.5,1.4-7.7c0.9-2.2,2.2-4.1,3.8-5.7c1.6-1.5,3.5-2.7,5.6-3.5c2.1-0.8,4.4-1.2,6.9-1.2c3.5,0,6.1,0.6,8,1.7
				c1.9,1.1,2.8,2.6,2.8,4.3c0,1-0.2,1.8-0.7,2.5c-0.5,0.7-1.1,1.3-1.7,1.7c-1-0.6-2-1.2-3.1-1.6C380.3,173.5,379,173.2,377.5,173.2
				"/>
			<path class="st4" d="M421.4,187.9c0,2-0.3,3.9-1,5.5c-0.7,1.7-1.7,3.1-3,4.3c-1.3,1.2-2.9,2.1-4.8,2.7c-1.9,0.6-4,1-6.4,1
				c-2.4,0-4.5-0.3-6.4-1c-1.9-0.6-3.5-1.5-4.8-2.7c-1.3-1.2-2.3-2.6-3-4.3c-0.7-1.7-1-3.5-1-5.5v-21.5c0.4-0.1,1.1-0.2,2-0.3
				c0.9-0.1,1.8-0.2,2.6-0.2c0.9,0,1.6,0.1,2.3,0.2c0.7,0.1,1.2,0.4,1.7,0.7c0.4,0.3,0.8,0.8,1,1.4c0.2,0.6,0.3,1.4,0.3,2.4v17.2
				c0,1.8,0.5,3.2,1.5,4.2c1,1,2.3,1.5,3.9,1.5c1.6,0,2.9-0.5,3.9-1.5c1-1,1.5-2.4,1.5-4.2v-21.3c0.4-0.1,1.1-0.2,2-0.3
				c0.9-0.1,1.8-0.2,2.6-0.2c0.9,0,1.6,0.1,2.3,0.2c0.7,0.1,1.2,0.4,1.7,0.7c0.5,0.3,0.8,0.8,1,1.4c0.2,0.6,0.3,1.4,0.3,2.4V187.9z"
				/>
			<path class="st4" d="M437.3,200.3c-0.4,0.1-1.1,0.2-1.9,0.3c-0.9,0.1-1.8,0.2-2.6,0.2c-0.9,0-1.6-0.1-2.3-0.2
				c-0.7-0.1-1.2-0.4-1.7-0.7c-0.5-0.3-0.8-0.8-1-1.4c-0.2-0.6-0.3-1.4-0.3-2.4v-26.5c0-0.8,0.2-1.4,0.6-1.8c0.4-0.4,1-0.8,1.8-1
				c1.3-0.4,2.7-0.8,4.4-1c1.6-0.2,3.3-0.3,4.9-0.3c5.2,0,9.1,1.1,11.9,3.3c2.7,2.2,4.1,5.2,4.1,9c0,1.8-0.3,3.5-0.9,5
				c-0.6,1.5-1.4,2.8-2.6,3.8c-1.1,1.1-2.6,1.9-4.3,2.5c-1.7,0.6-3.8,0.9-6.1,0.9h-4V200.3z M440.2,182.2c1.6,0,2.8-0.4,3.6-1.1
				c0.8-0.7,1.3-1.8,1.3-3.3c0-1.4-0.4-2.5-1.3-3.3c-0.9-0.8-2.2-1.2-3.9-1.2c-0.6,0-1.1,0-1.5,0c-0.4,0-0.8,0.1-1.2,0.1v8.7H440.2z
				"/>
			<path class="st4" d="M459,171.6c0-1.6,0.5-2.9,1.4-3.8c0.9-0.9,2.2-1.4,3.8-1.4h18.6c0.3,0.4,0.5,1,0.7,1.6
				c0.2,0.7,0.3,1.4,0.3,2.1c0,1.4-0.3,2.4-0.9,3c-0.6,0.6-1.4,0.9-2.4,0.9h-11.9v5.2h12.7c0.3,0.4,0.5,0.9,0.7,1.6
				c0.2,0.7,0.3,1.4,0.3,2.1c0,1.4-0.3,2.4-0.9,3c-0.6,0.6-1.4,0.9-2.4,0.9h-10.4v5.9H483c0.3,0.4,0.5,1,0.7,1.6
				c0.2,0.7,0.3,1.4,0.3,2.1c0,1.4-0.3,2.4-0.9,3.1c-0.6,0.6-1.4,0.9-2.4,0.9h-16.4c-1.6,0-2.9-0.5-3.8-1.4
				c-0.9-0.9-1.4-2.2-1.4-3.8V171.6z"/>
			<path class="st4" d="M498.5,189.5v10.8c-0.4,0.1-1.1,0.2-1.9,0.3c-0.9,0.1-1.8,0.2-2.6,0.2c-0.9,0-1.6-0.1-2.3-0.2
				c-0.7-0.1-1.2-0.4-1.6-0.7c-0.4-0.3-0.8-0.8-1-1.4c-0.2-0.6-0.3-1.4-0.3-2.4v-26.5c0-0.8,0.2-1.4,0.6-1.8c0.4-0.4,1-0.8,1.8-1
				c1.3-0.5,2.8-0.8,4.4-1c1.7-0.2,3.5-0.3,5.4-0.3c5.2,0,9.1,1.1,11.7,3.3c2.6,2.2,3.9,5.1,3.9,8.8c0,2.3-0.6,4.3-1.8,6
				c-1.2,1.7-2.6,2.9-4.3,3.8c1.4,1.8,2.7,3.6,4,5.2c1.3,1.6,2.3,3.1,3.1,4.4c-0.4,1.3-1.1,2.3-2.1,3c-1,0.7-2.1,1-3.3,1
				c-0.8,0-1.5-0.1-2.1-0.3c-0.6-0.2-1.1-0.5-1.6-0.8c-0.5-0.3-0.9-0.8-1.2-1.2c-0.4-0.5-0.7-1-1.1-1.6l-4.7-7.6H498.5z M502.1,182
				c1.4,0,2.6-0.4,3.4-1.1c0.8-0.7,1.2-1.8,1.2-3.2c0-1.4-0.5-2.5-1.4-3.2c-0.9-0.7-2.4-1.1-4.4-1.1c-0.6,0-1,0-1.4,0.1
				c-0.3,0-0.7,0.1-1.1,0.2v8.4H502.1z"/>
			<path class="st4" d="M529.6,167.4c0.6-0.4,1.6-0.7,2.9-1.1c1.3-0.3,2.6-0.5,3.9-0.5c1.9,0,3.5,0.3,5,0.8c1.4,0.5,2.4,1.4,2.8,2.6
				c0.7,2,1.4,4.2,2.2,6.8c0.8,2.6,1.6,5.3,2.4,8c0.8,2.8,1.6,5.5,2.3,8.2c0.8,2.7,1.4,5.1,2,7.1c-0.5,0.5-1.1,0.9-2,1.3
				c-0.9,0.3-2,0.5-3.2,0.5c-0.9,0-1.7-0.1-2.3-0.2c-0.6-0.2-1.1-0.4-1.5-0.7c-0.4-0.3-0.7-0.7-1-1.2c-0.2-0.5-0.5-1-0.6-1.7l-1-3.9
				h-10.2c-0.3,1.1-0.6,2.3-0.9,3.5c-0.3,1.2-0.6,2.4-0.9,3.5c-0.5,0.2-1.1,0.3-1.7,0.5c-0.6,0.1-1.3,0.2-2.1,0.2
				c-1.9,0-3.3-0.3-4.2-1c-0.9-0.7-1.4-1.6-1.4-2.7c0-0.5,0.1-1.1,0.2-1.6c0.1-0.5,0.3-1.1,0.5-1.9c0.3-1,0.6-2.3,1.1-3.8
				c0.5-1.5,1-3.1,1.5-4.9c0.6-1.7,1.2-3.5,1.8-5.4c0.6-1.8,1.2-3.6,1.8-5.2c0.6-1.6,1.1-3.1,1.5-4.4
				C529,169,529.3,168.1,529.6,167.4 M536.3,174.7c-0.5,1.6-1.1,3.3-1.8,5.3c-0.7,1.9-1.2,3.9-1.8,5.9h7c-0.5-2-1.1-4-1.6-5.9
				c-0.5-1.9-1-3.7-1.5-5.2H536.3z"/>
			<path class="st4" d="M573.3,173.2c-2.9,0-5.1,0.9-6.6,2.6c-1.5,1.8-2.3,4.3-2.3,7.5c0,3.3,0.9,5.8,2.6,7.5c1.7,1.8,4,2.6,6.9,2.6
				c1.5,0,2.8-0.2,3.9-0.6c1.1-0.4,2.1-0.9,3.1-1.4c0.6,0.5,1.1,1.2,1.5,1.9c0.4,0.7,0.5,1.6,0.5,2.6c0,1.5-0.9,2.8-2.6,3.9
				c-1.7,1.1-4.3,1.6-7.8,1.6c-2.5,0-4.9-0.4-7.1-1.1c-2.2-0.7-4.1-1.8-5.8-3.3c-1.7-1.5-3-3.4-3.9-5.6c-1-2.3-1.4-5-1.4-8.1
				c0-2.9,0.5-5.5,1.4-7.7c0.9-2.2,2.2-4.1,3.8-5.7c1.6-1.5,3.5-2.7,5.6-3.5c2.1-0.8,4.4-1.2,6.9-1.2c3.5,0,6.1,0.6,8,1.7
				c1.9,1.1,2.8,2.6,2.8,4.3c0,1-0.2,1.8-0.7,2.5c-0.5,0.7-1.1,1.3-1.7,1.7c-1-0.6-2-1.2-3.1-1.6
				C576.1,173.5,574.8,173.2,573.3,173.2"/>
			<path class="st4" d="M596.8,200.3c-0.4,0.1-1.1,0.2-1.9,0.3c-0.9,0.1-1.8,0.2-2.6,0.2c-0.9,0-1.6-0.1-2.3-0.2
				c-0.7-0.1-1.2-0.4-1.7-0.7c-0.5-0.3-0.8-0.8-1-1.4c-0.2-0.6-0.3-1.4-0.3-2.4v-29.7c0.4-0.1,1.1-0.2,2-0.3
				c0.9-0.1,1.8-0.2,2.6-0.2c0.9,0,1.6,0.1,2.3,0.2c0.7,0.1,1.2,0.4,1.7,0.7c0.5,0.3,0.8,0.8,1,1.4c0.2,0.6,0.3,1.4,0.3,2.4V200.3z"
				/>
			<path class="st4" d="M601.3,183.4c0-2.9,0.5-5.5,1.4-7.8c0.9-2.3,2.2-4.1,3.8-5.7c1.6-1.5,3.5-2.7,5.6-3.5c2.2-0.8,4.5-1.2,7-1.2
				c2.5,0,4.8,0.4,7,1.2c2.2,0.8,4,1.9,5.7,3.5c1.6,1.5,2.9,3.4,3.8,5.7c0.9,2.3,1.4,4.8,1.4,7.8c0,2.9-0.5,5.5-1.4,7.8
				c-0.9,2.3-2.1,4.2-3.7,5.7c-1.6,1.5-3.5,2.7-5.7,3.5c-2.2,0.8-4.5,1.2-7.1,1.2c-2.6,0-4.9-0.4-7.1-1.2c-2.2-0.8-4.1-2-5.6-3.5
				c-1.6-1.5-2.8-3.4-3.7-5.7C601.8,188.8,601.3,186.3,601.3,183.4 M611.4,183.4c0,3.4,0.7,6,2.1,7.7c1.4,1.7,3.2,2.5,5.6,2.5
				c2.4,0,4.2-0.8,5.6-2.5c1.4-1.7,2.1-4.2,2.1-7.7c0-3.4-0.7-5.9-2.1-7.6c-1.4-1.7-3.2-2.5-5.6-2.5c-2.3,0-4.2,0.8-5.6,2.5
				C612.1,177.4,611.4,180,611.4,183.4 M622.2,152.6c1.8,0.2,3.2,0.6,3.9,1.3c0.8,0.7,1.2,1.6,1.2,2.6c0,1.1-0.3,2-0.9,2.6
				c-0.6,0.6-1.6,1.2-2.9,1.7l-7.7,3c-1.1-0.2-2-0.7-2.6-1.4c-0.7-0.7-1-1.4-1-2.3c0-0.5,0.1-1,0.4-1.5c0.3-0.5,0.7-0.9,1.3-1.2
				L622.2,152.6z"/>
			<path class="st4" d="M672.3,199.3c-0.5,0.5-1.3,0.9-2.3,1.2c-1,0.3-2.2,0.4-3.6,0.4c-1.4,0-2.7-0.2-3.9-0.6c-1.2-0.4-2.3-1.4-3-3
				l-5.6-11.4c-0.6-1.2-1.1-2.3-1.5-3.3c-0.5-1-0.9-2.2-1.5-3.6l-0.3,0.1c0.2,2,0.2,4.1,0.3,6.2c0,2.1,0,4.2,0,6.2v8.7
				c-0.4,0.1-1,0.2-1.9,0.3c-0.8,0.1-1.7,0.2-2.5,0.2c-0.8,0-1.6-0.1-2.2-0.2c-0.6-0.1-1.2-0.3-1.6-0.7c-0.4-0.3-0.7-0.8-1-1.4
				c-0.2-0.6-0.3-1.3-0.3-2.3v-28.1c0.5-0.8,1.3-1.3,2.4-1.7c1.1-0.4,2.3-0.6,3.5-0.6c1.4,0,2.7,0.2,4,0.6c1.3,0.4,2.3,1.4,3,3
				l5.6,11.4c0.6,1.2,1.1,2.3,1.5,3.3c0.5,1,0.9,2.2,1.5,3.6l0.3-0.1c-0.2-2-0.2-4.1-0.3-6.1c0-2-0.1-4.1-0.1-6.1v-9.1
				c0.4-0.1,1-0.2,1.9-0.3c0.8-0.1,1.7-0.2,2.5-0.2c1.7,0,2.9,0.3,3.8,0.9c0.9,0.6,1.3,1.8,1.3,3.6V199.3z"/>
			<path class="st3" d="M301.9,223.1c116.4-8.4,234.2-9.4,352.2-3.4c8.2,0.4,28.4-6,11-7c-119.9-6.2-240.1-5-358.4,3.4
				C295.3,216.9,283.8,224.3,301.9,223.1"/>
			<path class="st4" d="M285.9,22.7c-0.8,0-1.6,0.2-2.2,0.5c-0.6,0.2-1.1,0.6-1.4,1c-0.2,0.2-0.3,0.3-0.3,0.4
				c-0.1,0.1-0.1,0.2-0.1,0.2s0.1,0,0.2,0.1c0.1,0.1,0.2,0.2,0.4,0.3c0.3,0.3,0.7,0.6,1.2,1c0.9,0.8,1.9,1.3,3.1,1.8
				c0.3,0.1,0.6,0.1,0.9,0.3c0.3,0.1,0.6,0.1,0.9,0.2c0.6,0.1,1.2,0.2,1.7,0.2c0.6,0,1.1,0,1.6,0c0.2,0,0.4,0,0.5-0.1l0.2,0
				c0,0,0-0.1,0-0.2c0-0.1,0-0.3,0-0.5c0-0.4-0.2-1-0.5-1.6c-0.6-1.2-1.9-2.5-3.5-3.1c-0.4-0.1-0.9-0.3-1.2-0.3
				C286.6,22.6,286.3,22.6,285.9,22.7"/>
			<path class="st4" d="M279.1,33.7c-0.6,0.2-1.1,0.6-1.4,0.9c-0.2,0.1-0.3,0.3-0.4,0.4l-0.1,0.1l0.1,0.1c0.1,0.1,0.2,0.2,0.4,0.4
				c0.3,0.3,0.7,0.7,1.3,1.1c1.1,0.8,2.6,1.3,4.2,1.4c1.6,0.1,3.1-0.1,4.4-0.7c0.6-0.2,1.1-0.6,1.4-0.9c0.2-0.1,0.3-0.3,0.4-0.4
				l0.1-0.1l-0.1-0.1c-0.1-0.1-0.2-0.2-0.4-0.4c-0.3-0.3-0.7-0.7-1.3-1.1c-1.1-0.8-2.6-1.3-4.2-1.4
				C281.9,32.8,280.3,33.1,279.1,33.7"/>
			<path class="st4" d="M283.6,46.7c-1.6,0.5-3,1.4-4,2.4c-0.5,0.5-0.9,1-1.1,1.4c-0.1,0.2-0.2,0.4-0.3,0.5
				c-0.1,0.1-0.1,0.2-0.1,0.2s0.1,0,0.2,0.1c0.1,0,0.3,0.1,0.6,0.2c0.5,0.1,1,0.4,1.7,0.4c1.4,0.2,3.1,0.2,4.7-0.4
				c1.6-0.6,3-1.4,4-2.4c0.5-0.5,0.9-1,1.1-1.4c0.1-0.2,0.2-0.4,0.3-0.5c0.1-0.1,0.1-0.2,0.1-0.2s-0.1,0-0.2-0.1
				c-0.1,0-0.3-0.1-0.6-0.2c-0.5-0.1-1-0.4-1.7-0.4C287,46,285.2,46.1,283.6,46.7"/>
			<path class="st4" d="M296.3,10.8L296.3,10.8c0,0,0,0.1-0.1,0.2c-0.1,0.1-0.2,0.3-0.3,0.5c-0.3,0.4-0.7,0.9-0.8,1.7
				c-0.5,1.4-0.6,3.4,0.1,5.1c0.6,1.8,1.9,3.3,3.2,4.1c0.6,0.4,1.3,0.7,1.7,0.8c0.2,0.1,0.5,0.1,0.6,0.1l0.2,0l0-0.2
				c0-0.1,0-0.3,0-0.6c0-0.5,0.1-1.1,0-1.8c0-0.7-0.1-1.4-0.2-2.1c-0.1-0.4-0.1-0.7-0.2-1.1c-0.1-0.4-0.2-0.7-0.3-1
				c-0.5-1.4-1.2-2.7-2-3.8c-0.4-0.5-0.8-1-1.2-1.4c-0.2-0.2-0.3-0.3-0.4-0.4L296.3,10.8z"/>
			<path class="st4" d="M311.8,10.1c-0.1,0.1-0.3,0.2-0.4,0.4c-0.3,0.3-0.8,0.7-1.3,1.3c-0.9,1.1-1.6,2.5-1.9,4.2
				c-0.3,1.5-0.2,3.2,0.3,4.5c0.2,0.6,0.5,1.2,0.7,1.6c0.1,0.2,0.3,0.3,0.3,0.5c0.1,0.1,0.1,0.2,0.1,0.2s0.1,0,0.2-0.1
				c0.1-0.1,0.3-0.2,0.4-0.4c0.3-0.3,0.8-0.7,1.3-1.3c0.9-1.1,1.6-2.5,1.9-4.2c0.3-1.5,0.2-3.2-0.3-4.5c-0.2-0.6-0.5-1.2-0.7-1.6
				c-0.1-0.2-0.3-0.3-0.3-0.5C312,10.1,312,10,312,10S311.9,10,311.8,10.1"/>
			<path class="st4" d="M689.6,161.1c0.3-0.7,0.4-1.5,0.3-2.2c0-0.7-0.1-1.3-0.4-1.7c-0.1-0.3-0.1-0.4-0.2-0.4
				c0-0.1-0.1-0.2-0.1-0.2s0,0.1-0.2,0.1c-0.1,0-0.3,0.1-0.4,0.2c-0.4,0.1-0.9,0.4-1.3,0.7c-1,0.6-2,1.3-2.8,2.2
				c-0.2,0.2-0.3,0.5-0.6,0.7c-0.2,0.2-0.3,0.5-0.5,0.7c-0.3,0.5-0.6,1-0.9,1.5c-0.3,0.5-0.4,1-0.6,1.4c-0.1,0.2-0.2,0.3-0.1,0.5
				l-0.1,0.2c0,0,0.1,0,0.2,0.1c0.1,0,0.3,0.1,0.4,0.2c0.3,0.2,1,0.2,1.7,0.2c1.4-0.1,3-0.8,4.2-2.1c0.3-0.3,0.6-0.7,0.7-1.1
				C689.4,161.8,689.6,161.5,689.6,161.1"/>
			<path class="st4" d="M681.9,150.8c0-0.7-0.1-1.3-0.3-1.7c0-0.2-0.1-0.4-0.2-0.5l0-0.1l-0.1,0c-0.1,0-0.3,0.1-0.5,0.2
				c-0.4,0.1-1,0.4-1.5,0.8c-1.1,0.7-2.2,2-2.9,3.4c-0.7,1.4-1,3-0.9,4.3c0,0.7,0.1,1.3,0.3,1.7c0,0.2,0.1,0.4,0.2,0.5l0,0.1l0.1,0
				c0.1,0,0.3-0.1,0.5-0.2c0.4-0.1,1-0.4,1.5-0.8c1.1-0.7,2.2-2,2.9-3.4C681.7,153.7,682,152.1,681.9,150.8"/>
			<path class="st4" d="M668.2,150.2c0.2-1.7-0.2-3.4-0.8-4.6c-0.3-0.7-0.6-1.2-0.9-1.5c-0.1-0.2-0.3-0.3-0.3-0.5
				c0-0.1-0.1-0.2-0.1-0.2s0,0.1-0.2,0.1c0,0.1-0.2,0.2-0.4,0.4c-0.3,0.4-0.7,0.8-1,1.4c-0.7,1.3-1.3,2.8-1.4,4.5
				c-0.1,1.7,0.2,3.4,0.8,4.6c0.3,0.7,0.6,1.2,0.9,1.5c0.1,0.2,0.3,0.3,0.3,0.5c0,0.1,0.1,0.2,0.1,0.2s0-0.1,0.2-0.1
				c0-0.1,0.2-0.2,0.4-0.4c0.3-0.4,0.7-0.8,1-1.4C667.5,153.5,668.1,151.9,668.2,150.2"/>
			<path class="st4" d="M696.8,175.2L696.8,175.2c0,0-0.1,0-0.1-0.2c0-0.1-0.2-0.3-0.3-0.5c-0.2-0.4-0.6-1-1.3-1.4
				c-1.1-1-2.9-1.8-4.8-1.8c-1.9-0.1-3.7,0.5-5,1.5c-0.7,0.4-1.1,1-1.4,1.3c-0.2,0.1-0.3,0.4-0.3,0.5c0,0.1-0.1,0.2-0.1,0.2
				s0.1,0,0.2,0.1c0.1,0,0.3,0.1,0.5,0.3c0.4,0.2,1,0.5,1.6,0.7c0.7,0.2,1.3,0.4,2,0.6c0.4,0.1,0.7,0.1,1.1,0.2c0.4,0.1,0.7,0,1,0.1
				c1.5,0.1,3-0.1,4.3-0.5c0.7-0.2,1.3-0.4,1.7-0.6c0.3-0.1,0.4-0.1,0.5-0.2L696.8,175.2z"/>
			<path class="st4" d="M691.7,189.9c0-0.1,0-0.3-0.2-0.5c-0.1-0.4-0.4-1-0.7-1.7c-0.7-1.2-1.8-2.4-3.2-3.3
				c-1.3-0.9-2.9-1.3-4.3-1.4c-0.7,0-1.3,0-1.8,0.1c-0.2,0-0.4,0.1-0.6,0c-0.1,0-0.2,0-0.2,0s0,0.1,0,0.2c0,0.1,0,0.3,0.2,0.5
				c0.1,0.4,0.4,1,0.7,1.7c0.7,1.2,1.8,2.4,3.2,3.3c1.3,0.9,2.9,1.3,4.3,1.4c0.7,0,1.3,0,1.8-0.1c0.2,0,0.4-0.1,0.6,0
				c0.1,0,0.2,0,0.2,0S691.8,190,691.7,189.9"/>
			<path class="st5" d="M493.1,83.7c-0.5-4.4-5.1-8.6-9.6-6.2c-1.6,0.9-2.8,2.3-3.5,4c-0.9-2.9-2.6-5.2-5.8-5.5
				c-5.4-0.6-10.8,5-12.5,9.6c-2.4,6.3,2.4,12.8,6,17.5c1.9,2.5,4,5,5.8,7.6c1.5,2.1,2.6,4.5,4.2,6.6c0.1,0.2,0.1,0.4,0.2,0.6
				c0.2,0.5,0.6,0.8,1.1,1c0,0,0,0.1,0.1,0.1c1,1.1,2.8,0.2,2.9-1.2c0-0.7-0.1-1.4-0.2-2.1c0.6-1.8,0.8-3.8,1.3-5.6
				c1-3.3,2.2-6.6,3.6-9.7C488.9,95.1,493.8,89.8,493.1,83.7 M487.6,81.2C487.6,81.2,487.6,81.3,487.6,81.2
				c-0.2,0.1-0.3,0.1-0.5,0.1c-0.2,0.1-0.5,0.1-0.7,0.2c-0.3-0.3-0.7-0.4-1.1-0.5C486.1,80.7,486.9,80.6,487.6,81.2 M478.6,109.7
				c-0.1-0.2-0.2-0.3-0.4-0.5c0.2-0.2,0.4-0.5,0.4-0.9c0.2,0,0.3,0,0.5-0.1C478.9,108.7,478.7,109.2,478.6,109.7"/>
			<path class="st3" d="M493.8,63.7c1.8,0.2,3.2,0.6,3.9,1.3c0.8,0.7,1.2,1.6,1.2,2.6c0,1.1-0.3,2-0.9,2.6c-0.6,0.6-1.6,1.2-2.9,1.7
				l-7.7,3c-1.1-0.2-2-0.7-2.6-1.4c-0.7-0.7-1-1.4-1-2.3c0-0.5,0.1-1,0.4-1.5c0.3-0.5,0.7-0.9,1.3-1.2L493.8,63.7z"/>
		</g>
	</g>
</g>
</svg>
